<?xml version="1.0" encoding="utf-8"?>
<!-- Generator: Adobe Illustrator 28.2.0, SVG Export Plug-In . SVG Version: 6.00 Build 0)  -->
<svg version="1.1" id="Layer_1" xmlns="http://www.w3.org/2000/svg" xmlns:xlink="http://www.w3.org/1999/xlink" x="0px" y="0px"
	 viewBox="0 0 104.8 102.9" style="enable-background:new 0 0 104.8 102.9;" xml:space="preserve">
<style type="text/css">
	.st0{fill:#FFFFFF;stroke:#96A6A8;stroke-width:5;stroke-miterlimit:10;}
	.st1{fill:#F27121;}
	.st2{fill:#506A6E;stroke:#506A6E;stroke-linecap:round;stroke-linejoin:round;stroke-miterlimit:10;}
	.st3{fill:#F69558;}
	.st4{fill:#F37121;}
	.st5{fill:url(#SVGID_1_);}
	.st6{fill:#F27123;}
</style>
<circle class="st0" cx="56.66" cy="54.04" r="41.84"/>
<path class="st1" d="M4.2,36.36c-0.11,0-0.23-0.02-0.34-0.06C3.3,36.09,3,35.48,3.2,34.92C7.65,22.31,16.59,11.79,28.36,5.31
	c0.52-0.29,1.18-0.1,1.47,0.43c0.29,0.52,0.1,1.18-0.42,1.47C18.09,13.43,9.51,23.52,5.24,35.64C5.08,36.08,4.65,36.36,4.2,36.36"/>
<path class="st1" d="M12.37,78.97c-0.59-0.01-1.15-0.32-1.47-0.87C5.94,69.5,3.68,59.69,4.34,49.75
	c0.89-13.39,6.95-25.63,17.04-34.46C31.48,6.45,44.42,2.08,57.8,2.97c8.29,0.55,16.36,3.16,23.35,7.56
	c0.81,0.51,1.05,1.57,0.54,2.38c-0.51,0.81-1.57,1.05-2.38,0.54c-6.51-4.09-14.03-6.52-21.75-7.03C45.1,5.59,33.06,9.66,23.66,17.88
	c-9.4,8.23-15.04,19.63-15.87,32.09c-0.62,9.26,1.49,18.4,6.11,26.41c0.48,0.83,0.19,1.88-0.63,2.36
	C12.98,78.91,12.67,78.98,12.37,78.97"/>
<path class="st1" d="M53.53,102.51c-0.79-0.02-1.58-0.05-2.37-0.1c-0.71-0.05-1.25-0.67-1.2-1.38c0.05-0.72,0.65-1.27,1.38-1.21
	c10.64,0.71,21.29-2.26,30-8.38c0.58-0.41,1.39-0.27,1.8,0.32c0.41,0.58,0.27,1.39-0.32,1.8C74.28,99.57,63.96,102.7,53.53,102.51"
	/>
<g>
	<g>
		<g>
			<path class="st2" d="M76.48,54.07c0-9.56-6.69-13.17-6.76-13.2l0,0l-0.5,0.94c0,0.01,0.36,0.19,0.94,0.64l0,0
				c0.58,0.45,1.36,1.14,2.14,2.11l0,0c1.55,1.95,3.12,5,3.12,9.52l0,0c0,1.29-0.13,2.7-0.42,4.24l0,0l1.04,0.2
				C76.34,56.91,76.48,55.43,76.48,54.07L76.48,54.07z"/>
		</g>
		<g>
			<path class="st2" d="M84.18,55.19c0-16.44-11.79-21.59-11.87-21.61l0,0l-0.42,0.98c0,0,0.67,0.29,1.72,0.98l0,0
				c1.05,0.7,2.46,1.8,3.86,3.38l0,0c2.81,3.19,5.64,8.32,5.64,16.26l0,0c0,2.39-0.26,5.03-0.85,7.95l0,0l1.04,0.21
				C83.91,60.36,84.18,57.65,84.18,55.19L84.18,55.19z"/>
		</g>
		<g>
			<path class="st2" d="M91.78,54.79c-0.01-20-15.68-28.26-15.74-28.29l0,0l-0.49,0.94c0,0,0.92,0.48,2.35,1.53l0,0
				c1.42,1.05,3.32,2.66,5.23,4.87l0,0c3.8,4.42,7.59,11.24,7.6,20.94l0,0c0,3.48-0.49,7.34-1.65,11.6l0,0l1.02,0.28
				C91.28,62.33,91.78,58.38,91.78,54.79L91.78,54.79z"/>
		</g>
	</g>
	<g>
		<g>
			<path class="st3" d="M32.49,72.12c0.23,0.84,1.01,1.37,1.74,1.17l8.73-2.39c0.73-0.2,1.14-1.05,0.91-1.89l-0.8-2.93
				c-0.23-0.84-1.01-1.37-1.74-1.17l-8.73,2.39c-0.73,0.2-1.14,1.05-0.91,1.89L32.49,72.12z"/>
		</g>
		<g>
			<g>
				<path class="st4" d="M59.86,49.4c0-0.07,0.02-0.14,0.08-0.17C59.96,49.2,60,49.2,60,49.2c0.88-0.02,4.66-0.1,5.43,0.01
					c0.87,0.13,1.53,0.41,2.21,1.6c0.68,1.19,1.01,3.79,0.63,5.16c-0.38,1.37-1.59,1.73-2.4,2.16c-0.7,0.37-2.93,1.34-3.56,1.61
					c-0.01,0-0.04,0.02-0.07,0.01c0,0-0.08-0.01-0.14-0.13C62.01,59.47,61.78,51.43,59.86,49.4z"/>
			</g>
			<g>
				
					<linearGradient id="SVGID_1_" gradientUnits="userSpaceOnUse" x1="1938.9894" y1="59.9731" x2="1947.4934" y2="31.1535" gradientTransform="matrix(-1 0 0 1 1977.9865 0)">
					<stop  offset="0" style="stop-color:#C8C8C8"/>
					<stop  offset="0.2388" style="stop-color:#ECEDED"/>
					<stop  offset="0.4032" style="stop-color:#E8E9E9"/>
					<stop  offset="0.5751" style="stop-color:#DEDEDC"/>
					<stop  offset="0.7506" style="stop-color:#CBCCC7"/>
					<stop  offset="0.9275" style="stop-color:#B2B2AA"/>
					<stop  offset="1" style="stop-color:#A6A69C"/>
				</linearGradient>
				<path class="st5" d="M51.43,39.6c0,0-7.72,5.19-16.42,9.35c-8.7,4.15-11.44,5.15-13.2,5.91c-1.76,0.76-2.68,1.17-2.4,3.18
					c0.53,3.88,1.06,5.31,2.48,8.84c0.75,1.86,0.87,2.68,4.1,2.21c3.23-0.47,18.97-2.83,29.87,1.34
					C55.85,70.42,61.46,60.4,51.43,39.6z"/>
				<g>
					<path class="st6" d="M53.81,55.44c1.38,8.31,0.97,15.09,0.97,15.09c0.36,1.85,2.15,3.07,4,2.71l0,0
						c1.85-0.36,2.87-1.89,2.96-4.36c0,0,0.56-4.06-1.04-14.04c-1.36-8.48-5.16-16.48-5.16-16.48c-0.89-2.08-2.15-3.06-4-2.71l0,0
						c-1.85,0.36-3.07,2.15-2.71,4C48.84,39.66,52.51,47.6,53.81,55.44z"/>
					<path class="st6" d="M59.62,52.23c0,0-3.31-12.05-5.2-14.64c-1.89-2.6-4.84-0.94-4.96,1.3c0,0,0.94-2.24,3.43-1.3
						C55.37,38.53,59.27,49.51,59.62,52.23z"/>
				</g>
				<g>
					<path class="st6" d="M31.39,59.79c0.96,4.53,1.25,8.72,1.25,8.72c0.24,1.01,1.25,1.63,2.26,1.39l0,0
						c1.01-0.24,1.63-1.25,1.39-2.26c0,0,0-3.11-1.12-8.55c-0.95-4.62-2.9-8.24-2.9-8.24c-0.24-1.01-1.26-1.63-2.26-1.39l0,0
						c-1.01,0.24-1.63,1.25-1.39,2.26C28.62,51.71,30.48,55.52,31.39,59.79z"/>
					<path class="st6" d="M29.15,51.05c0,0,0.12-1.06,1.18-1.18c1.06-0.12,3.19,2.36,4.49,11.22c0,0-2.11-9.48-4.13-10.16
						C29.26,50.46,29.15,51.05,29.15,51.05z"/>
				</g>
			</g>
		</g>
	</g>
	<path class="st6" d="M34.23,73.28c0,0,7.91-1.92,8.73-2.39c0.82-0.46,9.56,22.54,9.56,22.54s-0.58,2.05-2.74,3
		c-1.3,0.57-3.68,0.63-5.41-0.09L34.23,73.28z"/>
</g>
</svg>
