<?xml version="1.0" encoding="utf-8"?>
<!-- Generator: Adobe Illustrator 22.0.1, SVG Export Plug-In . SVG Version: 6.00 Build 0)  -->
<svg version="1.1" id="Layer_1" xmlns="http://www.w3.org/2000/svg" xmlns:xlink="http://www.w3.org/1999/xlink" x="0px" y="0px"
	 viewBox="0 0 104.8 102.9" style="enable-background:new 0 0 104.8 102.9;" xml:space="preserve">
<style type="text/css">
	.st0{fill:#FFFFFF;stroke:#96A6A8;stroke-width:5;stroke-miterlimit:10;}
	.st1{fill:#F27121;}
	.st2{fill:#FFFFFF;stroke:#F37121;stroke-width:1.0461;stroke-miterlimit:10;}
	.st3{fill:#ADADAD;}
	.st4{fill:#F37121;}
	.st5{fill:#F37121;stroke:#F37121;stroke-width:0.2366;stroke-miterlimit:10;}
	.st6{fill:#225E87;}
	.st7{fill:none;}
	.st8{fill:#8EAEC0;stroke:#8EAEC0;stroke-width:0.2615;stroke-linecap:round;stroke-linejoin:round;stroke-miterlimit:10;}
</style>
<circle class="st0" cx="53.9" cy="53.1" r="41.8"/>
<path class="st1" d="M3.5,36.4c-0.1,0-0.2,0-0.3-0.1c-0.6-0.2-0.9-0.8-0.7-1.4C6.9,22.4,15.8,11.8,27.6,5.4c0.5-0.3,1.2-0.1,1.5,0.4
	s0.1,1.2-0.4,1.5C17.4,13.5,8.8,23.6,4.5,35.7C4.3,36.1,3.9,36.4,3.5,36.4"/>
<path class="st1" d="M11.6,79c-0.6,0-1.2-0.3-1.5-0.9c-5-8.6-7.2-18.4-6.6-28.4c0.9-13.4,6.9-25.6,17-34.5C30.7,6.5,43.7,2.1,57.1,3
	c8.3,0.6,16.4,3.2,23.4,7.6c0.8,0.5,1.1,1.6,0.5,2.4c-0.5,0.8-1.6,1.1-2.4,0.5c-6.5-4.1-14-6.5-21.7-7c-12.5-0.9-24.6,3.2-34,11.4
	S7.9,37.5,7,50c-0.6,9.3,1.5,18.4,6.1,26.4c0.5,0.8,0.2,1.9-0.6,2.4C12.2,79,11.9,79,11.6,79"/>
<path class="st1" d="M52.8,102.6c-0.8,0-1.6,0-2.4-0.1c-0.7,0-1.3-0.7-1.2-1.4c0-0.7,0.7-1.3,1.4-1.2c10.6,0.7,21.3-2.3,30-8.4
	c0.6-0.4,1.4-0.3,1.8,0.3c0.4,0.6,0.3,1.4-0.3,1.8C73.5,99.6,63.2,102.8,52.8,102.6"/>
<g>
	<g>
		<path class="st2" d="M83.6,69.3c0,0-8,9-8,9.1H27c-0.4,0-0.8-0.4-0.8-0.8V36.2c0-0.4,0.4-0.8,0.8-0.8h55.8c0.4,0,0.8,0.4,0.8,0.8
			C83.6,36.2,83.6,69.3,83.6,69.3z"/>
		<g>
			<g>
				<rect x="33.7" y="50.7" class="st3" width="4.5" height="3.2"/>
				<rect x="40.1" y="50.7" class="st3" width="4.5" height="3.2"/>
				<rect x="46.6" y="50.7" class="st4" width="4.5" height="3.2"/>
				<rect x="53.1" y="50.7" class="st3" width="4.5" height="3.2"/>
				<rect x="59.5" y="50.7" class="st3" width="4.5" height="3.2"/>
				<rect x="65.9" y="50.7" class="st3" width="4.5" height="3.2"/>
				<rect x="72.3" y="50.7" class="st3" width="4.5" height="3.2"/>
			</g>
			<g>
				<rect x="53.1" y="45" class="st3" width="4.5" height="3.2"/>
				<rect x="59.5" y="45" class="st3" width="4.5" height="3.2"/>
				<rect x="65.9" y="45" class="st3" width="4.5" height="3.2"/>
				<rect x="72.3" y="45" class="st3" width="4.5" height="3.2"/>
			</g>
			<g>
				<rect x="33.7" y="56.5" class="st3" width="4.5" height="3.2"/>
				<rect x="40.1" y="56.5" class="st3" width="4.5" height="3.2"/>
				<rect x="46.6" y="56.5" class="st3" width="4.5" height="3.2"/>
				<rect x="53.1" y="56.5" class="st3" width="4.5" height="3.2"/>
				<rect x="59.5" y="56.5" class="st3" width="4.5" height="3.2"/>
				<rect x="65.9" y="56.5" class="st3" width="4.5" height="3.2"/>
				<rect x="72.3" y="56.5" class="st3" width="4.5" height="3.2"/>
			</g>
			<g>
				<rect x="33.7" y="62.5" class="st3" width="4.5" height="3.2"/>
				<rect x="40.1" y="62.5" class="st3" width="4.5" height="3.2"/>
				<rect x="46.6" y="62.5" class="st3" width="4.5" height="3.2"/>
				<rect x="53.1" y="62.5" class="st3" width="4.5" height="3.2"/>
				<rect x="59.5" y="62.5" class="st3" width="4.5" height="3.2"/>
				<rect x="65.9" y="62.5" class="st3" width="4.5" height="3.2"/>
				<rect x="72.3" y="62.5" class="st3" width="4.5" height="3.2"/>
			</g>
			<g>
				<rect x="33.7" y="68.4" class="st3" width="4.5" height="3.2"/>
				<rect x="40.1" y="68.4" class="st3" width="4.5" height="3.2"/>
				<rect x="46.6" y="68.4" class="st3" width="4.5" height="3.2"/>
			</g>
		</g>
	</g>
	<path class="st5" d="M84,40.6v-9.3c0-0.4-0.4-0.8-0.8-0.8H26.7c-0.4,0-0.8,0.4-0.8,0.8v9.3H84z"/>
	<g>
		<g>
			<path class="st6" d="M31.9,33.3c0,0.5-0.3,0.9-0.7,0.9h-0.1c-0.4,0-0.7-0.4-0.7-0.9v-3.8c0-0.5,0.3-0.9,0.7-0.9h0.1
				c0.4,0,0.7,0.4,0.7,0.9V33.3z"/>
		</g>
		<g>
			<path class="st6" d="M36.7,33.3c0,0.5-0.3,0.9-0.7,0.9h-0.1c-0.4,0-0.7-0.4-0.7-0.9v-3.8c0-0.5,0.3-0.9,0.7-0.9h0.1
				c0.4,0,0.7,0.4,0.7,0.9V33.3z"/>
		</g>
		<g>
			<path class="st6" d="M41.5,33.3c0,0.5-0.3,0.9-0.7,0.9l0,0c-0.4,0-0.7-0.4-0.7-0.9v-3.8c0-0.5,0.3-0.9,0.7-0.9l0,0
				c0.4,0,0.7,0.4,0.7,0.9V33.3z"/>
		</g>
		<g>
			<path class="st6" d="M46.2,33.3c0,0.5-0.3,0.9-0.7,0.9h-0.1c-0.4,0-0.7-0.4-0.7-0.9v-3.8c0-0.5,0.3-0.9,0.7-0.9h0.1
				c0.4,0,0.7,0.4,0.7,0.9V33.3z"/>
		</g>
		<g>
			<path class="st6" d="M51,33.3c0,0.5-0.3,0.9-0.7,0.9h-0.1c-0.4,0-0.7-0.4-0.7-0.9v-3.8c0-0.5,0.3-0.9,0.7-0.9l0,0
				c0.4,0,0.7,0.4,0.7,0.9L51,33.3L51,33.3z"/>
		</g>
		<g>
			<path class="st6" d="M55.7,33.3c0,0.5-0.3,0.9-0.7,0.9h-0.1c-0.4,0-0.7-0.4-0.7-0.9v-3.8c0-0.5,0.3-0.9,0.7-0.9H55
				c0.4,0,0.7,0.4,0.7,0.9V33.3z"/>
		</g>
		<g>
			<path class="st6" d="M60.4,33.3c0,0.5-0.3,0.9-0.7,0.9h-0.1c-0.4,0-0.7-0.4-0.7-0.9v-3.8c0-0.5,0.3-0.9,0.7-0.9h0.1
				c0.4,0,0.7,0.4,0.7,0.9V33.3z"/>
		</g>
		<g>
			<path class="st6" d="M65.2,33.3c0,0.5-0.3,0.9-0.7,0.9l0,0c-0.4,0-0.7-0.4-0.7-0.9v-3.8c0-0.5,0.3-0.9,0.7-0.9l0,0
				c0.4,0,0.7,0.4,0.7,0.9V33.3z"/>
		</g>
		<g>
			<path class="st6" d="M69.9,33.3c0,0.5-0.3,0.9-0.7,0.9l0,0c-0.4,0-0.7-0.4-0.7-0.9v-3.8c0-0.5,0.3-0.9,0.7-0.9l0,0
				c0.4,0,0.7,0.4,0.7,0.9V33.3z"/>
		</g>
		<g>
			<path class="st6" d="M74.6,33.3c0,0.5-0.3,0.9-0.7,0.9h-0.1c-0.4,0-0.7-0.4-0.7-0.9v-3.8c0-0.5,0.3-0.9,0.7-0.9h0.1
				c0.4,0,0.7,0.4,0.7,0.9V33.3z"/>
		</g>
		<g>
			<path class="st6" d="M79.4,33.3c0,0.5-0.3,0.9-0.7,0.9h-0.1c-0.4,0-0.7-0.4-0.7-0.9v-3.8c0-0.5,0.3-0.9,0.7-0.9h0.1
				c0.4,0,0.7,0.4,0.7,0.9V33.3z"/>
		</g>
	</g>
</g>
<ellipse class="st7" cx="52.4" cy="51.3" rx="52.7" ry="51.6"/>
<g>
	<path class="st8" d="M77.1,69.3H84l-8.3,9.4v-7.9C75.7,70,76.4,69.3,77.1,69.3z"/>
</g>
</svg>
