<?xml version="1.0" encoding="utf-8"?>
<!-- Generator: Adobe Illustrator 22.0.1, SVG Export Plug-In . SVG Version: 6.00 Build 0)  -->
<svg version="1.1" id="Layer_1" xmlns="http://www.w3.org/2000/svg" xmlns:xlink="http://www.w3.org/1999/xlink" x="0px" y="0px"
	 viewBox="0 0 250 250" style="enable-background:new 0 0 250 250;" xml:space="preserve">
<style type="text/css">
	.st0{fill:#506A6E;}
	.st1{opacity:5.000000e-02;fill:#A7B4B6;enable-background:new    ;}
	.st2{opacity:0.9;}
	.st3{fill:#FFFFFF;}
	.st4{opacity:0.7;fill:#808080;enable-background:new    ;}
	.st5{fill:#AD9832;}
	.st6{fill:#BCBDBF;}
	.st7{fill:#D1D2D3;}
	.st8{fill:#E5E6E6;}
	.st9{fill:#F27123;}
	.st10{fill:#DC602D;}
	.st11{fill:#929497;}
	.st12{fill:#A7A9AA;}
	.st13{fill:#7E8081;}
	.st14{fill:#6D6E71;}
	.st15{fill:#59595C;}
	.st16{fill:#808184;}
	.st17{fill:#F37640;}
	.st18{fill:#58B7D1;}
	.st19{fill:#A7A8AB;}
	.st20{fill:#E1E3E7;}
	.st21{fill:#D1D2D6;}
	.st22{fill:#BCBDC2;}
	.st23{fill:#CDCED4;}
	.st24{fill:#9AA5AF;}
	.st25{fill:#E86025;}
	.st26{fill:#0B9AC0;}
	.st27{fill:#42454C;}
	.st28{fill:#E7CA34;}
	.st29{fill:#F6DB53;}
	.st30{fill:#424143;}
	.st31{fill:#EB2027;}
	.st32{fill:#8B9D9F;}
	.st33{opacity:0.7;}
	.st34{fill:#808080;}
	.st35{fill:#20BAB1;}
	.st36{fill:#04B1A6;}
	.st37{fill:#00A797;}
	.st38{fill:#049A8A;}
	.st39{fill:#F4F5F5;}
	.st40{fill:#EBECEC;}
	.st41{fill:#E1E2E3;}
	.st42{fill:#D56634;}
	.st43{fill:#F7EC32;}
	.st44{fill:#D5CA28;}
	.st45{fill:#93A2A9;}
	.st46{fill:#8EAEC0;}
	.st47{fill:#ADADAD;}
	.st48{fill:#F37121;}
	.st49{fill:#225E87;}
	.st50{fill:#0A253E;}
	.st51{fill:#026E99;}
	.st52{fill:#F16522;}
	.st53{fill:#DF4326;}
	.st54{fill:#818282;}
	.st55{fill:#92A3A5;}
	.st56{fill:#FFFFFF;stroke:#F27123;stroke-width:0.5556;stroke-miterlimit:10;}
</style>
<g id="Layer_2_1_">
	<g>
		<rect class="st0" width="250" height="250"/>
		<g>
			<path class="st1" d="M177.2,135.9c0,0-19.4-7-16.7-28.8c0,0,0.9,12.6,11.1,18.3c-1.5-5.7-0.2-11.3,3.9-17.8
				c-1.4-4.1-3.3-8.1-5.7-11.8c0,0-18.7,9-31.9-8.5c0,0,9.6,8.6,21.1,5.3c-5.2-3-8.3-8-10.2-15.7c-2-1-4.2-1.9-6.4-2.7
				c-1.6-0.5-4.2-1.3-6.5-1.8c0,0-6.3,19.6-28.1,17.1c0,0,12.8-1.1,18.4-11.7c-5.9,1.7-11.6,0.5-18.2-3.7c-4.1,1.4-8.1,3.3-11.8,5.7
				c0,0,8.7,19-8.9,32.1c0,0,8.6-9.5,5.6-21c-3,5-8,8-15.5,9.9c-1,2-1.9,4.2-2.7,6.4s-1.4,4.4-1.8,6.7c0,0,19.4,7,16.7,28.8
				c0,0-0.9-12.6-11.1-18.3c1.5,5.7,0.2,11.3-3.9,17.8c1.4,4.1,3.1,8,5.5,11.7c0,0,18.5-9.1,31.7,8.4c0,0-9.4-8.5-20.9-5.2
				c5.2,3,8.2,7.9,10.1,15.6c2,1,4.7,2.1,6.3,2.7c2.2,0.8,4.4,1.4,6.7,1.8c0,0,6.4-19.6,28.2-17.1c0,0-12.8,1.1-18.3,11.7
				c5.9-1.7,11.6-0.5,18.2,3.7c4.1-1.4,8.1-3.3,11.8-5.7c0,0-8.7-19,8.9-32.1c0,0-8.6,9.5-5.6,21c3-5,8-8,15.5-9.9
				c1-2,1.9-4.2,2.7-6.4C176.1,140.3,176.7,138.1,177.2,135.9 M113.5,157.4c-14.1-4.9-22.5-21.2-17.4-35.9s21.8-22.3,35.9-17.4
				c14.7,5.1,22.5,21.2,17.4,35.9S128.2,162.5,113.5,157.4"/>
			<g class="st2">
				<g>
					<path class="st3" d="M115.1,187.6c-0.4-0.1-0.7-0.1-1.1-0.2l0.2-0.9c0.7,0.1,1.5,0.3,2.2,0.4l-0.1,0.9
						C115.8,187.7,115.4,187.7,115.1,187.6z M111.8,186.9c-0.7-0.2-1.5-0.4-2.2-0.5l0.2-0.9c0.7,0.2,1.4,0.4,2.1,0.5L111.8,186.9z
						 M118.4,188.1l0.1-0.9c0.7,0.1,1.5,0.2,2.2,0.2l-0.1,0.9C119.9,188.3,119.2,188.2,118.4,188.1z M107.5,185.8
						c-0.7-0.2-1.4-0.5-2.1-0.7l0.3-0.8c0.7,0.2,1.4,0.5,2.1,0.7L107.5,185.8z M122.9,188.5v-0.9c0.7,0,1.5,0.1,2.2,0.1v0.9
						C124.4,188.5,123.7,188.5,122.9,188.5z M103.2,184.3c-0.7-0.3-1.4-0.6-2.1-0.9l0.4-0.8c0.7,0.3,1.4,0.6,2,0.9L103.2,184.3z
						 M127.4,188.5v-0.9c0.7,0,1.5-0.1,2.2-0.1l0.1,0.9C128.9,188.5,128.1,188.5,127.4,188.5z M99.1,182.5c-0.7-0.3-1.3-0.7-2-1
						l0.4-0.8c0.7,0.3,1.3,0.7,2,1L99.1,182.5z M131.9,188.2l-0.1-0.9c0.7-0.1,1.5-0.2,2.2-0.3l0.1,0.9
						C133.4,188.1,132.6,188.1,131.9,188.2z M95.1,180.4c-0.6-0.4-1.3-0.8-1.9-1.2l0.5-0.8c0.6,0.4,1.3,0.8,1.9,1.1L95.1,180.4z
						 M136.3,187.6l-0.2-0.9c0.7-0.1,1.4-0.3,2.2-0.4l0.2,0.9C137.8,187.3,137.1,187.5,136.3,187.6z M91.3,178
						c-0.6-0.4-1.2-0.9-1.8-1.3L90,176c0.6,0.4,1.2,0.9,1.8,1.3L91.3,178z M140.7,186.6l-0.2-0.9c0.7-0.2,1.4-0.4,2.1-0.6l0.3,0.9
						C142.2,186.3,141.4,186.5,140.7,186.6z M87.7,175.3c-0.6-0.5-1.2-0.9-1.7-1.4l0.6-0.7c0.6,0.5,1.1,1,1.7,1.4L87.7,175.3z
						 M145,185.4l-0.3-0.8c0.7-0.2,1.4-0.5,2.1-0.7l0.3,0.8C146.4,184.9,145.7,185.1,145,185.4z M149.2,183.8l-0.3-0.8
						c0.7-0.3,1.4-0.6,2-0.9l0.4,0.8C150.6,183.2,149.9,183.5,149.2,183.8z M84.3,172.3c-0.5-0.5-1.1-1-1.6-1.6l0.6-0.6
						c0.5,0.5,1.1,1,1.6,1.5L84.3,172.3z M153.3,181.9l-0.4-0.8c0.6-0.3,1.3-0.7,2-1l0.4,0.8C154.6,181.2,153.9,181.5,153.3,181.9z
						 M81.1,169.2c-0.5-0.5-1-1.1-1.5-1.7l0.7-0.6c0.5,0.6,1,1.1,1.5,1.6L81.1,169.2z M157.2,179.7l-0.5-0.8
						c0.6-0.4,1.3-0.8,1.9-1.2l0.5,0.7C158.5,178.9,157.8,179.3,157.2,179.7z M78.2,165.8c-0.5-0.6-0.9-1.2-1.4-1.8l0.7-0.5
						c0.4,0.6,0.9,1.2,1.4,1.8L78.2,165.8z M160.9,177.2l-0.5-0.7c0.6-0.4,1.2-0.9,1.8-1.3l0.5,0.7
						C162.2,176.3,161.5,176.8,160.9,177.2z M75.5,162.2c-0.4-0.6-0.8-1.2-1.2-1.9l0.7-0.5c0.4,0.6,0.8,1.2,1.2,1.8L75.5,162.2z
						 M164.5,174.5l-0.6-0.7c0.6-0.5,1.1-1,1.7-1.4l0.6,0.7C165.6,173.5,165.1,174,164.5,174.5z M73.1,158.4c-0.4-0.6-0.7-1.3-1.1-2
						l0.8-0.4c0.3,0.6,0.7,1.3,1.1,1.9L73.1,158.4z M167.8,171.5l-0.6-0.6c0.5-0.5,1.1-1,1.6-1.6l0.6,0.6
						C168.9,170.4,168.4,171,167.8,171.5z M71,154.4c-0.3-0.7-0.6-1.4-0.9-2l0.8-0.4c0.3,0.7,0.6,1.3,0.9,2L71,154.4z M171,168.2
						l-0.7-0.6c0.5-0.5,1-1.1,1.4-1.7l0.7,0.6C172,167.1,171.5,167.7,171,168.2z M69.2,150.3c-0.3-0.7-0.5-1.4-0.8-2.1l0.8-0.3
						c0.2,0.7,0.5,1.4,0.8,2.1L69.2,150.3z M67.6,146.1c-0.2-0.7-0.4-1.4-0.6-2.1l0.9-0.2c0.2,0.7,0.4,1.4,0.6,2.1L67.6,146.1z
						 M173.8,164.8l-0.7-0.5c0.5-0.6,0.9-1.2,1.3-1.8l0.7,0.5C174.7,163.6,174.3,164.2,173.8,164.8z M66.4,141.8
						c-0.2-0.7-0.3-1.5-0.5-2.2l0.9-0.2c0.1,0.7,0.3,1.4,0.5,2.2L66.4,141.8z M176.5,161.1l-0.7-0.5c0.4-0.6,0.8-1.2,1.2-1.9
						l0.8,0.5C177.3,159.8,176.9,160.5,176.5,161.1z M65.6,137.4c-0.1-0.7-0.2-1.5-0.3-2.2l0.9-0.1c0.1,0.7,0.2,1.5,0.3,2.2
						L65.6,137.4z M178.8,157.3l-0.8-0.4c0.4-0.6,0.7-1.3,1-2l0.8,0.4C179.5,155.9,179.1,156.6,178.8,157.3z M65,132.9
						c-0.1-0.7-0.1-1.5-0.1-2.2h0.9c0,0.7,0.1,1.5,0.1,2.2H65z M180.8,153.2l-0.8-0.4c0.3-0.7,0.6-1.3,0.9-2l0.8,0.3
						C181.4,151.9,181.1,152.6,180.8,153.2z M64.8,128.4c0-0.7,0-1.5,0-2.2h0.9c0,0.7,0,1.5,0,2.2H64.8z M182.6,149.1l-0.8-0.3
						c0.3-0.7,0.5-1.4,0.7-2.1l0.8,0.3C183.1,147.7,182.8,148.4,182.6,149.1z M64.9,123.9c0-0.7,0.1-1.5,0.2-2.2l0.9,0.1
						c-0.1,0.7-0.1,1.5-0.2,2.2L64.9,123.9z M184,144.8l-0.9-0.2c0.2-0.7,0.4-1.4,0.6-2.1l0.9,0.2
						C184.4,143.4,184.2,144.1,184,144.8z M65.4,119.5c0.1-0.7,0.2-1.5,0.3-2.2l0.9,0.2c-0.1,0.7-0.2,1.5-0.3,2.2L65.4,119.5z
						 M185.1,140.5l-0.9-0.2c0.2-0.7,0.3-1.4,0.4-2.2V138l0.9,0.2v0.1C185.4,139,185.2,139.7,185.1,140.5z M67,115.2l-0.9-0.2
						c0.2-0.7,0.3-1.5,0.5-2.2l0.9,0.2C67.3,113.8,67.2,114.5,67,115.2z M185,135.8c0.1-0.7,0.2-1.5,0.3-2.2l0.9,0.1
						c-0.1,0.7-0.2,1.5-0.3,2.2L185,135.8z M68.1,110.9l-0.9-0.2c0.2-0.7,0.4-1.4,0.7-2.1l0.8,0.3C68.5,109.5,68.3,110.2,68.1,110.9
						z M185.4,131.4c0-0.7,0.1-1.5,0.1-2.2h0.9c0,0.7-0.1,1.5-0.1,2.2H185.4z M69.5,106.7l-0.8-0.3c0.3-0.7,0.5-1.4,0.8-2.1l0.8,0.3
						C70,105.3,69.8,106,69.5,106.7z M185.5,127c0-0.7,0-1.5-0.1-2.2h0.9c0,0.7,0.1,1.5,0.1,2.2H185.5z M71.2,102.6l-0.8-0.4
						c0.3-0.7,0.6-1.4,1-2l0.8,0.4C71.8,101.3,71.5,102,71.2,102.6z M185.3,122.6c-0.1-0.7-0.1-1.5-0.2-2.2l0.9-0.1
						c0.1,0.7,0.2,1.5,0.2,2.2L185.3,122.6z M73.2,98.7l-0.8-0.4c0.4-0.7,0.7-1.3,1.1-2l0.8,0.5C73.9,97.4,73.6,98,73.2,98.7z
						 M184.8,118.2c-0.1-0.7-0.2-1.5-0.4-2.2l0.9-0.2c0.1,0.7,0.3,1.5,0.4,2.2L184.8,118.2z M75.5,94.9l-0.7-0.5
						c0.4-0.6,0.8-1.2,1.3-1.9l0.7,0.5C76.3,93.6,75.9,94.3,75.5,94.9z M183.9,113.8c-0.2-0.7-0.4-1.4-0.6-2.1l0.9-0.2
						c0.2,0.7,0.4,1.5,0.6,2.2L183.9,113.8z M78.1,91.3l-0.7-0.5c0.5-0.6,0.9-1.2,1.4-1.8l0.7,0.6C79,90.1,78.5,90.7,78.1,91.3z
						 M182.7,109.6c-0.2-0.7-0.5-1.4-0.7-2.1l0.8-0.3c0.3,0.7,0.5,1.4,0.7,2.1L182.7,109.6z M80.9,87.8l-0.7-0.6
						c0.5-0.6,1-1.1,1.5-1.6l0.6,0.6C81.9,86.7,81.4,87.3,80.9,87.8z M181.2,105.4c-0.3-0.7-0.6-1.4-0.9-2l0.8-0.4
						c0.3,0.7,0.6,1.4,0.9,2.1L181.2,105.4z M84,84.7L83.3,84c0.5-0.5,1.1-1,1.6-1.5l0.6,0.7C85,83.6,84.5,84.1,84,84.7z
						 M179.4,101.4c-0.3-0.7-0.7-1.3-1-2l0.8-0.4c0.4,0.7,0.7,1.3,1,2L179.4,101.4z M87.3,81.7L86.7,81c0.6-0.5,1.2-1,1.8-1.4
						l0.5,0.7C88.4,80.8,87.8,81.2,87.3,81.7z M177.3,97.5c-0.4-0.6-0.8-1.3-1.2-1.9l0.7-0.5c0.4,0.6,0.8,1.3,1.2,1.9L177.3,97.5z
						 M90.8,79l-0.5-0.7c0.6-0.4,1.2-0.9,1.9-1.3l0.5,0.7C92,78.1,91.4,78.6,90.8,79z M175,93.8c-0.4-0.6-0.9-1.2-1.3-1.8l0.7-0.5
						c0.4,0.6,0.9,1.2,1.3,1.8L175,93.8z M94.5,76.5L94,75.8c0.6-0.4,1.3-0.8,1.9-1.1l0.4,0.8C95.7,75.8,95.1,76.2,94.5,76.5z
						 M172.3,90.2c-0.5-0.6-0.9-1.1-1.4-1.7l0.7-0.6c0.5,0.6,1,1.1,1.4,1.7L172.3,90.2z M98.3,74.4l-0.4-0.8c0.7-0.3,1.3-0.7,2-1
						l0.4,0.8C99.6,73.7,99,74.1,98.3,74.4z M169.4,86.9c-0.5-0.5-1-1.1-1.5-1.6l0.6-0.6c0.5,0.5,1.1,1.1,1.6,1.6L169.4,86.9z
						 M102.3,72.5l-0.3-0.8c0.7-0.3,1.4-0.6,2.1-0.8l0.3,0.8C103.7,72,103,72.2,102.3,72.5z M166.3,83.7c-0.5-0.5-1.1-1-1.7-1.5
						l0.6-0.7c0.6,0.5,1.1,1,1.7,1.5L166.3,83.7z M106.5,70.9l-0.3-0.8c0.7-0.2,1.4-0.5,2.1-0.7l0.3,0.9
						C107.9,70.5,107.2,70.7,106.5,70.9z M162.9,80.8c-0.6-0.5-1.2-0.9-1.8-1.4l0.5-0.7c0.6,0.4,1.2,0.9,1.8,1.4L162.9,80.8z
						 M110.7,69.7l-0.2-0.9c0.7-0.2,1.5-0.4,2.2-0.5l0.2,0.9C112.1,69.3,111.4,69.5,110.7,69.7z M159.4,78.2
						c-0.6-0.4-1.2-0.8-1.9-1.2l0.5-0.8c0.6,0.4,1.3,0.8,1.9,1.2L159.4,78.2z M115,68.7l-0.2-0.9c0.7-0.1,1.5-0.3,2.2-0.4l0.1,0.9
						C116.5,68.5,115.7,68.6,115,68.7z M155.6,75.8c-0.6-0.4-1.3-0.7-1.9-1.1l0.4-0.8c0.7,0.4,1.3,0.7,2,1.1L155.6,75.8z
						 M119.4,68.1l-0.1-0.9c0.7-0.1,1.5-0.1,2.2-0.2l0.1,0.9C120.9,68,120.1,68,119.4,68.1z M151.7,73.8c-0.7-0.3-1.3-0.6-2-0.9
						L150,72c0.7,0.3,1.4,0.6,2,0.9L151.7,73.8z M123.8,67.8v-0.9c0.7,0,1.5,0,2.2,0v0.9C125.3,67.8,124.5,67.8,123.8,67.8z
						 M147.6,72c-0.7-0.3-1.4-0.5-2.1-0.8l0.3-0.8c0.7,0.2,1.4,0.5,2.1,0.8L147.6,72z M128.2,67.9V67c0.7,0,1.5,0.1,2.2,0.1
						l-0.1,0.9C129.7,67.9,129,67.9,128.2,67.9z M143.5,70.5c-0.7-0.2-1.4-0.4-2.1-0.6l0.2-0.9c0.7,0.2,1.4,0.4,2.2,0.6L143.5,70.5z
						 M132.6,68.2l0.1-0.9c0.7,0.1,1.5,0.2,2.2,0.3l-0.1,0.9C134.1,68.4,133.4,68.3,132.6,68.2z M139.2,69.4
						c-0.7-0.2-1.4-0.3-2.2-0.5l0.2-0.9c0.7,0.1,1.5,0.3,2.2,0.5L139.2,69.4z"/>
				</g>
			</g>
		</g>
	</g>
</g>
<g id="Layer_1_1_">
	<g>
		<g>
			<g>
				<g>
					<path class="st4" d="M216.9,150.8l6.1-11l-3.6-2.1l0.7-1.8l-3.7-1.5l1-3.9l-19.1-5l-0.5-0.3l-0.1,0.1l-8.5-2.2l-5.6,21.6
						c-0.4,0.3-0.8,0.6-1.1,0.9c-0.2,0-0.3-0.1-0.5-0.1h-7.7c-1.2,0-2.2,1-2.2,2.2v3.7v1.7V172c0,1.4,1,2.6,2.3,2.8
						c0.2,0,0.4,0.1,0.6,0.1h17h15.2h0.4c1.2,0,2.2-0.7,2.7-1.8c0.2-0.3,0.4-0.7,0.5-1L216.9,150.8z"/>
					<g id="_x32__2_">
						<path class="st5" d="M206,174h-32c-1.6,0-2.5-1.3-1.9-2.8l9-25.7c0.5-1.4,2.1-2.5,3.6-2.5H215c1.5,0,2.4,1.1,2,2.5l-7.5,25.7
							C209.2,172.7,207.6,174,206,174z"/>
						
							<rect x="176.8" y="131.1" transform="matrix(0.2516 -0.9678 0.9678 0.2516 6.636 299.7983)" class="st6" width="40.8" height="29.1"/>
						
							<rect x="177.7" y="134" transform="matrix(0.3662 -0.9305 0.9305 0.3662 -12.6184 278.4979)" class="st7" width="40.8" height="29.1"/>
						<polygon class="st8" points="202.6,173.4 176.4,159.6 196.8,124.2 222,138.7 						"/>
						<g>
							
								<rect x="207.5" y="122" transform="matrix(0.4978 -0.8673 0.8673 0.4978 -11.9666 247.9221)" class="st6" width="1.2" height="24.5"/>
							
								<rect x="206" y="125.6" transform="matrix(0.4974 -0.8675 0.8675 0.4974 -15.7661 248.5127)" class="st6" width="1.2" height="24.5"/>
							
								<rect x="203.2" y="129.2" transform="matrix(0.4974 -0.8675 0.8675 0.4974 -20.295 247.9332)" class="st6" width="1.2" height="24.5"/>
							
								<rect x="201.3" y="132.7" transform="matrix(0.4974 -0.8675 0.8675 0.4974 -24.2734 248.0357)" class="st6" width="1.2" height="24.5"/>
							
								<rect x="199.3" y="136.3" transform="matrix(0.4974 -0.8675 0.8675 0.4974 -28.4485 248.0596)" class="st6" width="1.2" height="24.5"/>
							
								<rect x="196.8" y="139.9" transform="matrix(0.4974 -0.8675 0.8675 0.4974 -32.8126 247.7156)" class="st6" width="1.2" height="24.5"/>
						</g>
						<g>
							<path class="st9" d="M183.3,147.6v-0.8c0-1.2-1-2.2-2.2-2.2h-7.7c-1.2,0-2.2,1-2.2,2.2v3.7v1.7v18.9c0,1.6,1.3,2.9,2.9,2.9
								h16.8v-26.4L183.3,147.6L183.3,147.6z"/>
							<path class="st10" d="M206.5,147.6h-15.6V174h15.6c1.6,0,2.9-1.3,2.9-2.9v-20.6C209.4,148.9,208,147.6,206.5,147.6z"/>
							<rect x="172.5" y="146.6" class="st3" width="9" height="3.7"/>
						</g>
					</g>
				</g>
				<g>
					<path class="st4" d="M79.4,96.4V63.5v-0.8h1.9v-3.3H71.1v-0.3C71.1,59,71,59,71,59H58.8v-0.5c0-0.1-0.1-0.1-0.1-0.1h-3.8v-0.6
						c0-0.1-0.1-0.1-0.1-0.1h-7.7c-0.1,0-0.1,0.1-0.1,0.1v1.3v0.3h-6.3v3.3h1.9v0.8v0.8v32.5v1.1h-1.9v3.3h40.6v-3.3h-1.9v-1.1V96.4
						z"/>
					<g id="_x33__1_">
						<rect x="41.6" y="61.6" class="st11" width="36.7" height="0.8"/>
						<polygon class="st12" points="78.3,62.4 41.6,62.4 41.6,63.2 78.3,95.3 						"/>
						<polygon class="st6" points="41.6,63.2 41.6,95.7 78.3,95.7 78.3,95.3 						"/>
						<rect x="41.6" y="95.7" class="st11" width="36.7" height="1.1"/>
						<rect x="39.6" y="58.3" class="st6" width="40.6" height="3.3"/>
						<rect x="39.6" y="96.7" class="st6" width="40.6" height="3.3"/>
						<g>
							<polygon class="st11" points="67.3,85.7 42.5,85.7 42.5,95 77.3,95 77.3,94.5 							"/>
							<polygon class="st13" points="77.3,85.7 67.3,85.7 77.3,94.5 							"/>
							<g>
								<polygon class="st6" points="76.5,86.4 68.1,86.4 76.5,93.7 								"/>
								<polygon class="st6" points="68.1,86.4 43.4,86.4 43.4,94.4 76.5,94.4 76.5,93.7 								"/>
								<polygon class="st12" points="76.5,86.4 68.1,86.4 76.5,93.7 								"/>
								<polygon class="st6" points="68.1,86.4 43.4,86.4 43.4,94.4 76.5,94.4 76.5,93.7 								"/>
								<rect x="55.9" y="89.8" class="st14" width="7.9" height="1.3"/>
							</g>
						</g>
						<g>
							<polygon class="st13" points="77.3,83.9 77.3,74.5 54.5,74.5 65.2,83.9 							"/>
							<polygon class="st11" points="42.5,83.9 65.2,83.9 54.5,74.5 42.5,74.5 							"/>
							<g>
								<polygon class="st6" points="76.5,83.2 76.5,75.2 55.3,75.2 64.4,83.2 								"/>
								<polygon class="st6" points="43.4,83.2 64.4,83.2 55.3,75.2 43.4,75.2 								"/>
								<polygon class="st12" points="76.5,83.2 76.5,75.2 55.3,75.2 64.4,83.2 								"/>
								<polygon class="st6" points="43.4,83.2 64.4,83.2 55.3,75.2 43.4,75.2 								"/>
								<polygon class="st15" points="63.9,79.9 63.9,78.6 59.2,78.6 60.7,79.9 								"/>
								<polygon class="st14" points="55.9,79.9 60.7,79.9 59.2,78.6 55.9,78.6 								"/>
							</g>
						</g>
						<rect x="43.4" y="62.4" class="st16" width="33.9" height="3.5"/>
						<g>
							<path class="st17" d="M69.9,57.9H53.8v-1.2c0-0.1-0.1-0.1-0.1-0.1H46c-0.1,0-0.1,0.1-0.1,0.1V58v3.2v8.9
								c0,0.1,0.1,0.1,0.1,0.1h23.9c0.1,0,0.1-0.1,0.1-0.1v-12C70,58,69.9,57.9,69.9,57.9z"/>
							<rect x="46.9" y="57.5" class="st3" width="5.2" height="2"/>
						</g>
						<g>
							<path class="st18" d="M73.8,58.6H57.7v-1.2c0-0.1-0.1-0.1-0.1-0.1h-7.7c-0.1,0-0.1,0.1-0.1,0.1v1.3v3.2v8.9
								c0,0.1,0.1,0.1,0.1,0.1h23.9c0.1,0,0.1-0.1,0.1-0.1v-12C73.9,58.7,73.8,58.6,73.8,58.6z"/>
							<rect x="50.8" y="58.2" class="st3" width="5.2" height="2"/>
						</g>
						<g>
							<polygon class="st13" points="77.3,73.7 77.3,64.4 43,64.4 53.6,73.7 							"/>
							<polygon class="st11" points="42.5,73.7 53.6,73.7 43,64.4 42.5,64.4 							"/>
							<g>
								<polygon class="st6" points="76.5,73.1 76.5,65.1 43.7,65.1 52.9,73.1 								"/>
								<polygon class="st6" points="43.4,73.1 52.9,73.1 43.7,65.1 43.4,65.1 								"/>
								<polygon class="st6" points="43.4,73.1 52.9,73.1 43.7,65.1 43.4,65.1 								"/>
								<polygon class="st12" points="76.5,73.1 76.5,65.1 43.7,65.1 52.9,73.1 								"/>
								<rect x="55.9" y="68.5" class="st15" width="7.9" height="1.3"/>
							</g>
						</g>
					</g>
				</g>
				<g>
					<path class="st4" d="M169.8,119.4l3.6-2.3l-8.4-0.3l2.1-1.4l-11.3-0.4c-0.5-0.3-1.1-0.4-1.9-0.5v-0.8l-0.1-1
						c0-0.5-0.5-0.9-1-0.8l-1.3,0.1h-0.4l-1.4,0.1l-2.3,0.1l-35.9,2h-0.2v0.1l-2,0.8l-3.5,1.4l-0.4,0.1l4,1.1l0.5,0.1l-26.2,10
						l9.6,0.4l-3.4,1.3l5.6,0.2l-5.7,2.2l5.2,0.2l-7.1,2.7l7.7,0.3l-7.9,3l5.6,0.2L86,141l5.5,0.2l-3.6,1.4l5.2,0.2l-7.1,2.7
						l7.7,0.3l-7.9,3l6.2,0.3l-5.4,2.1l60.5,2.5L170,139l-4.2-0.1l3.4-2.2l-4.7-0.2l4.9-3.1l-2.5-0.1l4.4-2.8l-4.2-0.1l2.3-1.5
						l-2.8-0.1l4.6-3l-4.7-0.2l4.9-3.1l-2.5-0.1l4.4-2.8L169.8,119.4z"/>
					<g id="_x37__2_">
						<g>
							<g>
								<polygon class="st6" points="168.8,137.8 121.9,136.2 85.6,150.1 146,152.6 								"/>
							</g>
							<g>
								<polygon class="st8" points="168,135.5 121.1,133.9 84.8,147.8 145.2,150.2 								"/>
							</g>
							<g>
								<polygon class="st6" points="168.2,132.2 121.2,130.6 84.9,144.5 145.4,146.9 								"/>
							</g>
							<g>
								<polygon class="st8" points="170.1,129.3 123.1,127.7 86.8,141.6 147.3,144 								"/>
							</g>
						</g>
						<g>
							<g>
								<polygon class="st6" points="168.2,127.7 121.2,126.1 84.9,139.9 145.4,142.4 								"/>
							</g>
							<g>
								<polygon class="st8" points="170,124.6 123.1,123 86.8,136.8 147.2,139.3 								"/>
							</g>
							<g>
								<polygon class="st6" points="170.2,121.3 123.2,119.7 86.9,133.5 147.4,136 								"/>
							</g>
							<g>
								<polygon class="st8" points="172.1,118.4 125.1,116.8 88.8,130.6 149.3,133.1 								"/>
							</g>
							<g>
								<polygon class="st6" points="172.2,116 125.3,114.3 89,128.2 149.4,130.7 								"/>
								<g>
									<polygon class="st19" points="149.5,126.3 104.2,124.6 100.8,125.9 147.2,127.7 									"/>
									<polygon class="st19" points="153.8,123.8 110.3,122.1 107.3,123.3 151.7,125 									"/>
									<polygon class="st19" points="157.7,121.4 116,119.9 113.2,121 155.8,122.6 									"/>
									<polygon class="st19" points="161.3,119.3 121.2,117.8 118.6,118.8 159.5,120.3 									"/>
									<polygon class="st19" points="164.6,117.3 126,115.9 123.6,116.9 163,118.3 									"/>
								</g>
							</g>
						</g>
						<g>
							<g>
								<polygon class="st20" points="82.7,126.5 120.5,128.1 108.9,116.5 								"/>
								<path class="st21" d="M126.4,112.9c-3.6,3.4-9.1,3.9-13.9,2.2l-3.6,1.4l11.6,11.6l22.7,0.9l22.8-14.7L126.4,112.9z"/>
								<path class="st20" d="M126.4,112.9l-7.4-0.3l-6.5,2.5C117.3,116.8,122.8,116.3,126.4,112.9z"/>
								<g>
									<polygon class="st22" points="140.9,126.1 143.2,124.7 116,123.6 117.5,125.1 									"/>
									<polygon class="st23" points="116,123.6 97.9,122.9 94.5,124.2 117.5,125.1 									"/>
									<polygon class="st22" points="147.5,122.1 113.2,120.8 114.6,122.2 145.4,123.4 									"/>
									<polygon class="st23" points="104,120.4 101,121.7 114.6,122.2 113.2,120.8 									"/>
									<polygon class="st23" points="109.7,118.2 106.9,119.3 111.9,119.5 110.6,118.2 									"/>
									<polygon class="st22" points="151.4,119.7 110.6,118.2 111.9,119.5 149.5,120.9 									"/>
									<polygon class="st22" points="114.9,116.1 112.3,117.2 153.2,118.7 155,117.6 									"/>
									<polygon class="st22" points="119.7,114.2 117.3,115.2 156.7,116.6 158.3,115.6 									"/>
								</g>
							</g>
						</g>
						<g>
							<path class="st24" d="M152.6,112.6l0.1,1.3c0,0.5-0.4,0.9-0.9,0.9l-1.3,0.1l-0.1-2.2L152.6,112.6z"/>
							<path class="st6" d="M151.6,110.7c0.5,0,0.9,0.3,1,0.8l0.1,1l-2.2,0.1l-0.1-1.9H151.6z"/>
							<polygon class="st25" points="110.6,117 110.4,117 110.4,116.9 							"/>
							<polygon class="st17" points="110.4,113 110.2,113 110.2,113 							"/>
							<polygon class="st25" points="145.5,112.9 148.6,112.8 148.7,114.9 146.5,115 110.6,117 110.5,114.8 							"/>
							<polygon class="st17" points="146.3,111 148.5,110.9 148.6,112.8 145.5,112.9 110.5,114.8 110.4,113 							"/>
							<polygon class="st18" points="150,110.8 150.4,110.8 150.5,112.7 150.1,112.7 148.6,112.8 148.5,110.9 							"/>
							<polygon class="st26" points="150.1,112.7 150.5,112.7 150.6,114.8 150.2,114.8 148.7,114.9 148.6,112.8 							"/>
							<polygon class="st27" points="108.3,115 108.4,116.4 104.4,115.3 104.8,115.2 							"/>
							<polygon class="st15" points="108.3,115 104.8,115.2 108.2,113.8 							"/>
							<polygon class="st28" points="110.3,114.9 110.5,114.8 110.6,117 110.4,116.9 108.4,116.4 108.3,115 							"/>
							<polygon class="st29" points="110.2,113 110.4,113 110.5,114.8 110.3,114.9 108.3,115 108.2,113.8 							"/>
						</g>
						<g>
							<path class="st18" d="M117.1,121.3c0.8,0.1,2,0.2,4.1,0.3c-0.1-0.9-0.1-1.9-0.2-2.8c-2.1,0.5-3.3,0.7-4,0.9L117.1,121.3z"/>
							<polygon class="st18" points="156.6,115.1 160.8,114.8 159.1,120.1 156,120.4 							"/>
							<path class="st30" d="M143.6,121.4l-0.4-5.4c-0.5,0.1-1.1,0.1-1.6,0.2l0.4,5.3C142.5,121.4,143.1,121.4,143.6,121.4z"/>
							<path class="st15" d="M139.7,116.3c-5.5,0.6-10.9,1.4-18.8,2.4c0.1,1,0.1,2,0.2,3.1c8-0.1,13.4-0.1,18.9-0.3L139.7,116.3z"/>
							<path class="st15" d="M155.8,115.7c0,0,0.1-0.9-0.9-1.6c-1.2-0.8-3.2-1-6.2-0.6c-5.9,0.6-13.3,0.9-13.4,0.9
								c0,0,1.4,2.3,4.3,1c2.1-0.1,11-0.4,11.1-0.4c0,0,0.6,0,1,0.3c0.2,0.1,0.4,0.4,0.2,1c-0.2,0.5-0.1,0.8,0.1,0.9
								c0.7,0.4,2.9-0.9,3.6-1.3l0.1-0.1L155.8,115.7z"/>
							<path class="st18" d="M142,121.4l-0.4-5.3c-0.7,0.1-1.3,0.1-1.9,0.2l0.4,5.2C140.7,121.5,141.3,121.4,142,121.4z"/>
							<path class="st15" d="M157.3,120.4c-0.1-1.8-0.3-3.6-0.4-5.4c-5.5,0.3-9.8,0.6-13.7,1l0.4,5.4
								C147.5,121.2,151.8,120.9,157.3,120.4z"/>
							<path class="st30" d="M117,119.7c-0.3,0-0.6,0.1-0.9,0.3c-0.5,0.2-0.9,0.5-1.2,0.7c0.3,0.2,0.7,0.3,1.2,0.4
								c0.4,0.1,0.8,0.2,1.1,0.2C117.1,120.8,117,120.3,117,119.7z"/>
						</g>
					</g>
				</g>
				<g>
					<polygon class="st4" points="138.8,25.6 138.2,25.6 138.2,18.5 105.3,18.5 105.3,59.1 115.3,59.1 115.3,66.2 127.9,66.2 
						128.6,82.9 133.5,82.7 132.9,66.2 148.2,66.2 148.2,44.3 148.2,34.9 					"/>
					<g>
						<g>
							<g>
								<g>
									<polygon class="st8" points="104.2,17.4 104.2,57.9 137.1,57.9 137.1,36 137.1,17.4 									"/>
									<g>
										<rect x="106.3" y="33" class="st6" width="27.9" height="1.4"/>
										<rect x="106.3" y="29" class="st6" width="26.3" height="1.4"/>
										<rect x="106.3" y="25" class="st6" width="27.9" height="1.4"/>
										<rect x="106.3" y="21.1" class="st6" width="24.3" height="1.4"/>
										<rect x="106.3" y="37" class="st6" width="26.3" height="1.4"/>
										<rect x="106.3" y="40.9" class="st6" width="27.9" height="1.4"/>
										<rect x="106.3" y="44.9" class="st6" width="25.5" height="1.4"/>
										<rect x="106.3" y="48.9" class="st6" width="27.9" height="1.4"/>
										<rect x="106.3" y="52.8" class="st6" width="27.9" height="1.4"/>
									</g>
								</g>
							</g>
							<g>
								<g>
									<polygon class="st3" points="137.7,24.5 114.2,24.5 114.2,65.1 147.1,65.1 147.1,33.8 									"/>
								</g>
								<g>
									<g>
										<rect x="116.2" y="40.1" class="st6" width="27.9" height="1.4"/>
										<rect x="116.2" y="36.1" class="st6" width="27.9" height="1.4"/>
										<rect x="116.2" y="32.2" class="st6" width="27.9" height="1.4"/>
										<rect x="117.5" y="28.2" class="st6" width="23.1" height="1.4"/>
										<rect x="117.9" y="44.1" class="st6" width="26.3" height="1.4"/>
										<rect x="116.2" y="48.1" class="st6" width="27.9" height="1.4"/>
										<rect x="116.2" y="52" class="st6" width="27.9" height="1.4"/>
										<rect x="116.2" y="56" class="st6" width="27.9" height="1.4"/>
										<rect x="116.2" y="60" class="st6" width="27.9" height="1.4"/>
									</g>
									<polygon class="st3" points="137.7,33.8 147.1,33.8 137.7,24.5 									"/>
									<polygon class="st19" points="147.1,33.8 137.7,33.8 147.1,43.2 									"/>
								</g>
							</g>
						</g>
						<polygon class="st6" points="120.9,44.5 122.8,44.5 134,44.5 135.5,44.5 135.5,49.7 135.5,49.9 135.4,49.9 133.3,49.9 
							123.5,49.9 121.4,49.9 						"/>
						<g>
							<polygon class="st31" points="127.9,50.8 124.3,44.6 125.2,44 127.8,48.5 131.1,41.8 132.1,42.3 							"/>
						</g>
						<path class="st32" d="M138.7,46c-0.2-5.6-5-10-10.6-9.8c-5.6,0.2-10,5-9.8,10.6c0.2,5.2,4.3,9.4,9.4,9.7l0.2,5.1l-1.3,0.1
							l0.8,20.2l5-0.2l-0.8-20.2l-1.3,0.1l-0.2-5.1C135.2,55.6,138.9,51.2,138.7,46z M121.4,49.7c-1.8-3.9-0.1-8.6,3.8-10.5
							c3.9-1.8,8.6-0.1,10.5,3.8c1.8,3.9,0.1,8.6-3.8,10.5C127.9,55.3,123.2,53.6,121.4,49.7z"/>
					</g>
				</g>
				<g>
					<g class="st33">
						<polygon class="st34" points="115.4,211.5 123.2,177.7 123.2,211.4 129.5,211.4 135.7,211.4 142,211.4 148.2,211.4 
							148.2,196.3 148.2,170.6 142,170.6 135.7,170.6 129.5,170.6 123.2,170.6 123.2,171.2 123.2,171.4 118.6,170.3 112.4,168.9 
							103.2,208.7 109.4,210.1 						"/>
						<rect x="97.8" y="211.7" class="st34" width="56.8" height="4.6"/>
					</g>
					<g id="_x31_1_1_">
						<g>
							<g>
								<polygon class="st35" points="128.4,169.5 122.1,169.5 122.1,170.1 128.4,176.5 								"/>
								<polygon class="st36" points="122.1,170.1 122.1,210.3 128.4,210.3 128.4,176.5 								"/>
								<polygon class="st37" points="134.6,169.5 128.4,169.5 128.4,176.5 134.6,182.6 								"/>
								<polygon class="st38" points="128.4,176.5 128.4,210.3 134.6,210.3 134.6,182.6 								"/>
								<polygon class="st39" points="123.4,171.4 123.4,199.4 128.4,199.4 128.4,176.5 								"/>
								<polygon class="st3" points="128.4,171.3 123.4,171.3 123.4,171.4 128.4,176.5 								"/>
								<polygon class="st40" points="133.3,171.3 128.4,171.3 128.4,176.5 133.3,181.3 								"/>
								<polygon class="st41" points="128.4,176.5 128.4,199.4 133.3,199.4 133.3,181.3 								"/>
								<path class="st14" d="M128.3,207.5c-1.5,0-2.7-1.2-2.7-2.7s1.2-2.7,2.7-2.7h0.1l0,0c1.4,0.1,2.6,1.2,2.6,2.7
									S129.9,207.4,128.3,207.5L128.3,207.5C128.4,207.5,128.4,207.5,128.3,207.5z"/>
								<path class="st39" d="M126.1,204.8c0,1.3,1,2.3,2.3,2.3h0.1v-4.5h-0.1C127.1,202.5,126.1,203.6,126.1,204.8z"/>
								<path class="st41" d="M128.4,202.5v4.5c1.2,0,2.2-1,2.2-2.3C130.6,203.6,129.6,202.6,128.4,202.5z"/>
							</g>
							<g>
								<polygon class="st17" points="140.9,169.5 134.6,169.5 134.6,182.6 140.9,189 								"/>
								<polygon class="st17" points="134.6,182.6 134.6,210.3 140.9,210.3 140.9,189 								"/>
								<polygon class="st42" points="147.1,169.5 140.9,169.5 140.9,189 147.1,195.2 								"/>
								<polygon class="st42" points="140.9,189 140.9,210.3 147.1,210.3 147.1,195.2 								"/>
								<polygon class="st3" points="140.9,171.3 135.9,171.3 135.9,183.9 140.9,189 								"/>
								<polygon class="st39" points="135.9,183.9 135.9,199.4 140.9,199.4 140.9,189 								"/>
								<polygon class="st40" points="145.8,171.3 140.9,171.3 140.9,189 145.8,193.9 								"/>
								<polygon class="st41" points="140.9,189 140.9,199.4 145.8,199.4 145.8,193.9 								"/>
								<path class="st14" d="M140.8,207.5c-1.5,0-2.7-1.2-2.7-2.7s1.2-2.7,2.7-2.7h0.1l0,0c1.4,0.1,2.6,1.2,2.6,2.7
									S142.4,207.4,140.8,207.5L140.8,207.5C140.9,207.5,140.9,207.5,140.8,207.5z"/>
								<path class="st39" d="M138.6,204.8c0,1.3,1,2.3,2.3,2.3h0.1v-4.5h-0.1C139.6,202.5,138.6,203.6,138.6,204.8z"/>
								<path class="st41" d="M140.9,202.5v4.5c1.2,0,2.2-1,2.2-2.3C143.1,203.6,142.1,202.6,140.9,202.5z"/>
							</g>
							<g>
								
									<rect x="89.3" y="185.2" transform="matrix(0.2243 -0.9745 0.9745 0.2243 -98.4445 253.0574)" class="st43" width="40.8" height="6.3"/>
								
									<rect x="95.5" y="186.7" transform="matrix(0.2243 -0.9745 0.9745 0.2243 -95.0573 260.1441)" class="st44" width="40.8" height="6.2"/>
								
									<rect x="97.4" y="181.6" transform="matrix(0.2243 -0.9745 0.9745 0.2243 -92.966 251.3893)" class="st3" width="28.1" height="5"/>
								
									<rect x="102.2" y="182.8" transform="matrix(0.2242 -0.9745 0.9745 0.2242 -90.31 257.0289)" class="st8" width="28.1" height="4.9"/>
								<path class="st14" d="M109.5,206.2c-0.2,0-0.3,0-0.5,0l0,0c0,0,0,0-0.1,0c-0.7-0.2-1.3-0.6-1.7-1.2c-0.4-0.6-0.5-1.3-0.3-2
									c0.3-1.2,1.3-2.1,2.6-2.1c0.2,0,0.4,0,0.6,0.1c0,0,0,0,0.1,0l0,0c1.4,0.4,2.2,1.8,1.9,3.2
									C111.8,205.4,110.7,206.2,109.5,206.2L109.5,206.2z"/>
								<path class="st3" d="M110,201.4c-1.2-0.3-2.4,0.5-2.7,1.7c-0.3,1.2,0.5,2.4,1.7,2.7h0.1L110,201.4L110,201.4z"/>
								<path class="st8" d="M111.7,204.1c0.3-1.2-0.4-2.4-1.6-2.7l-1,4.4C110.2,206,111.4,205.3,111.7,204.1z"/>
							</g>
						</g>
						<rect x="96.6" y="210.5" class="st45" width="56.8" height="4.6"/>
					</g>
				</g>
				<g>
					<path class="st4" d="M209.9,56.3h-36.6c-0.2,0-0.4,0.2-0.4,0.4V69h-0.3v-0.5c0-0.3-0.2-0.5-0.4-0.5l0,0c-0.2,0-0.4,0.2-0.4,0.5
						V69h-1.7v-0.5c0-0.3-0.2-0.5-0.4-0.5l0,0c-0.2,0-0.4,0.2-0.4,0.5V69h-1.7v-0.5c0-0.3-0.2-0.5-0.4-0.5l0,0
						c-0.2,0-0.4,0.2-0.4,0.5V69h-1.7v-0.5c0-0.3-0.2-0.5-0.4-0.5l0,0c-0.2,0-0.4,0.2-0.4,0.5V69h-1.7v-0.5c0-0.3-0.2-0.5-0.4-0.5
						l0,0c-0.2,0-0.4,0.2-0.4,0.5V69H160c-0.2,0-0.4,0.2-0.4,0.4v2.5c0,0,0,0,0,0.1v22c0,0.2,0.2,0.4,0.4,0.4
						c0.1,0.2,0.2,0.3,0.4,0.3H173v8.8c0,0.2,0.2,0.4,0.4,0.4H210c0.2,0,0.4-0.2,0.4-0.4V56.7C210.2,56.5,210.1,56.3,209.9,56.3z"/>
					<g>
						<g>
							<g>
								<path class="st16" d="M188.9,93.1c0,0.2-0.2,0.4-0.4,0.4h-29.3c-0.2,0-0.4-0.2-0.4-0.4v-22c0-0.2,0.2-0.4,0.4-0.4h29.3
									c0.2,0,0.4,0.2,0.4,0.4V93.1z"/>
								<path class="st3" d="M188.9,88.5l-4.2,4.8h-25.8c-0.2,0-0.4-0.2-0.4-0.4v-22c0-0.2,0.2-0.4,0.4-0.4h29.6
									c0.2,0,0.4,0.2,0.4,0.4V88.5z"/>
								<g>
									<path class="st46" d="M185.4,88.5h3.5l-4.2,4.8v-4.1C184.7,88.8,185,88.5,185.4,88.5z"/>
								</g>
								<g>
									<g>
										<rect x="162.4" y="78.5" class="st47" width="2.4" height="1.7"/>
										<rect x="165.8" y="78.5" class="st47" width="2.4" height="1.7"/>
										<rect x="169.3" y="78.5" class="st48" width="2.4" height="1.7"/>
										<rect x="172.7" y="78.5" class="st47" width="2.4" height="1.7"/>
										<rect x="176.1" y="78.5" class="st47" width="2.4" height="1.7"/>
										<rect x="179.5" y="78.5" class="st47" width="2.4" height="1.7"/>
										<rect x="183" y="78.5" class="st47" width="2.4" height="1.7"/>
									</g>
									<g>
										<rect x="172.7" y="75.5" class="st47" width="2.4" height="1.7"/>
										<rect x="176.1" y="75.5" class="st47" width="2.4" height="1.7"/>
										<rect x="179.5" y="75.5" class="st47" width="2.4" height="1.7"/>
										<rect x="183" y="75.5" class="st47" width="2.4" height="1.7"/>
									</g>
									<g>
										<rect x="162.4" y="81.7" class="st47" width="2.4" height="1.7"/>
										<rect x="165.8" y="81.7" class="st47" width="2.4" height="1.7"/>
										<rect x="169.3" y="81.7" class="st47" width="2.4" height="1.7"/>
										<rect x="172.7" y="81.7" class="st47" width="2.4" height="1.7"/>
										<rect x="176.1" y="81.7" class="st47" width="2.4" height="1.7"/>
										<rect x="179.5" y="81.7" class="st47" width="2.4" height="1.7"/>
										<rect x="183" y="81.7" class="st47" width="2.4" height="1.7"/>
									</g>
									<g>
										<rect x="162.4" y="84.8" class="st47" width="2.4" height="1.7"/>
										<rect x="165.8" y="84.8" class="st47" width="2.4" height="1.7"/>
										<rect x="169.3" y="84.8" class="st47" width="2.4" height="1.7"/>
										<rect x="172.7" y="84.8" class="st47" width="2.4" height="1.7"/>
										<rect x="176.1" y="84.8" class="st47" width="2.4" height="1.7"/>
										<rect x="179.5" y="84.8" class="st47" width="2.4" height="1.7"/>
										<rect x="183" y="84.8" class="st47" width="2.4" height="1.7"/>
									</g>
									<g>
										<rect x="162.4" y="88" class="st47" width="2.4" height="1.7"/>
										<rect x="165.8" y="88" class="st47" width="2.4" height="1.7"/>
										<rect x="169.3" y="88" class="st47" width="2.4" height="1.7"/>
									</g>
								</g>
							</g>
							<path class="st48" d="M188.9,73.2v-4.9c0-0.2-0.2-0.4-0.4-0.4h-29.6c-0.2,0-0.4,0.2-0.4,0.4v4.9H188.9z"/>
							<g>
								<g>
									<path class="st49" d="M161.5,69.4c0,0.3-0.2,0.5-0.4,0.5l0,0c-0.2,0-0.4-0.2-0.4-0.5v-2c0-0.3,0.2-0.5,0.4-0.5l0,0
										c0.2,0,0.4,0.2,0.4,0.5V69.4z"/>
								</g>
								<g>
									<path class="st49" d="M164,69.4c0,0.3-0.2,0.5-0.4,0.5l0,0c-0.2,0-0.4-0.2-0.4-0.5v-2c0-0.3,0.2-0.5,0.4-0.5l0,0
										c0.2,0,0.4,0.2,0.4,0.5V69.4z"/>
								</g>
								<g>
									<path class="st49" d="M166.5,69.4c0,0.3-0.2,0.5-0.4,0.5l0,0c-0.2,0-0.4-0.2-0.4-0.5v-2c0-0.3,0.2-0.5,0.4-0.5l0,0
										c0.2,0,0.4,0.2,0.4,0.5V69.4z"/>
								</g>
								<g>
									<path class="st49" d="M169,69.4c0,0.3-0.2,0.5-0.4,0.5l0,0c-0.2,0-0.4-0.2-0.4-0.5v-2c0-0.3,0.2-0.5,0.4-0.5l0,0
										c0.2,0,0.4,0.2,0.4,0.5V69.4z"/>
								</g>
								<g>
									<path class="st49" d="M171.6,69.4c0,0.3-0.2,0.5-0.4,0.5l0,0c-0.2,0-0.4-0.2-0.4-0.5v-2c0-0.3,0.2-0.5,0.4-0.5l0,0
										c0.2,0,0.4,0.2,0.4,0.5V69.4z"/>
								</g>
								<g>
									<path class="st49" d="M174.1,69.4c0,0.3-0.2,0.5-0.4,0.5l0,0c-0.2,0-0.4-0.2-0.4-0.5v-2c0-0.3,0.2-0.5,0.4-0.5l0,0
										c0.2,0,0.4,0.2,0.4,0.5V69.4z"/>
								</g>
								<g>
									<path class="st49" d="M176.6,69.4c0,0.3-0.2,0.5-0.4,0.5l0,0c-0.2,0-0.4-0.2-0.4-0.5v-2c0-0.3,0.2-0.5,0.4-0.5l0,0
										c0.2,0,0.4,0.2,0.4,0.5V69.4z"/>
								</g>
								<g>
									<path class="st49" d="M179.1,69.4c0,0.3-0.2,0.5-0.4,0.5l0,0c-0.2,0-0.4-0.2-0.4-0.5v-2c0-0.3,0.2-0.5,0.4-0.5l0,0
										c0.2,0,0.4,0.2,0.4,0.5V69.4z"/>
								</g>
								<g>
									<path class="st50" d="M181.7,69.4c0,0.3-0.2,0.5-0.4,0.5l0,0c-0.2,0-0.4-0.2-0.4-0.5v-2c0-0.3,0.2-0.5,0.4-0.5l0,0
										c0.2,0,0.4,0.2,0.4,0.5V69.4z"/>
								</g>
								<g>
									<path class="st50" d="M184.2,69.4c0,0.3-0.2,0.5-0.4,0.5l0,0c-0.2,0-0.4-0.2-0.4-0.5v-2c0-0.3,0.2-0.5,0.4-0.5l0,0
										c0.2,0,0.4,0.2,0.4,0.5V69.4z"/>
								</g>
								<g>
									<path class="st50" d="M186.7,69.4c0,0.3-0.2,0.5-0.4,0.5l0,0c-0.2,0-0.4-0.2-0.4-0.5v-2c0-0.3,0.2-0.5,0.4-0.5l0,0
										c0.2,0,0.4,0.2,0.4,0.5V69.4z"/>
								</g>
							</g>
						</g>
						<g>
							<path class="st3" d="M209.1,102.4c0,0.2-0.2,0.4-0.4,0.4h-36.6c-0.2,0-0.4-0.2-0.4-0.4V55.6c0-0.2,0.2-0.4,0.4-0.4h36.6
								c0.2,0,0.4,0.2,0.4,0.4V102.4z"/>
							<g>
								<g>
									<rect x="176.1" y="63.3" class="st47" width="18.6" height="1"/>
									<rect x="176.1" y="64.9" class="st47" width="18.6" height="1"/>
									<rect x="176.1" y="66.5" class="st47" width="18.6" height="1"/>
									<rect x="176.1" y="68.1" class="st47" width="18.6" height="1"/>
									<rect x="176.1" y="69.8" class="st47" width="18.6" height="1"/>
								</g>
								<g>
									<rect x="176.1" y="74.5" class="st47" width="18.6" height="1"/>
									<rect x="176.1" y="76.1" class="st47" width="18.6" height="1"/>
									<rect x="176.1" y="77.7" class="st47" width="18.6" height="1"/>
									<rect x="176.1" y="79.4" class="st47" width="18.6" height="1"/>
									<rect x="176.1" y="81" class="st47" width="18.6" height="1"/>
								</g>
								<g>
									<rect x="197.5" y="87.7" class="st47" width="8.1" height="1"/>
									<rect x="197.5" y="89.3" class="st47" width="8.1" height="1"/>
									<rect x="197.5" y="90.9" class="st47" width="8.1" height="1"/>
									<rect x="197.5" y="92.6" class="st47" width="8.1" height="1"/>
									<rect x="197.5" y="94.2" class="st47" width="8.1" height="1"/>
									<rect x="197.5" y="96.1" class="st47" width="8.1" height="1"/>
								</g>
								<g>
									<polygon class="st47" points="197.8,81.2 197.8,74.6 197.4,74.6 197.4,81.6 204.4,81.6 204.4,81.2 									"/>
									<g>
										<polygon class="st48" points="203.6,77 202.7,77.1 202.9,77.3 201.2,78.8 200.3,78.4 198.4,80 198.4,80.5 200.3,78.9 
											201.3,79.3 203.2,77.6 203.4,77.9 										"/>
										<g>
											<path class="st51" d="M198.4,79.3l1.2-2.4c0,0,0.1-0.1,0.1,0l0,0l1.3,0.5l0.5-0.2l0.5-2.1c0,0,0-0.1,0.1-0.1l0,0h0.1l0,0
												l0.8,1l1.1-0.4l0.1,0.2l-1.1,0.4H203l0,0l-0.7-0.9l-0.5,2c0,0,0,0-0.1,0.1l0,0l-0.6,0.2c0,0,0,0-0.1,0l0,0l-1.3-0.5
												l-1.3,2.6V79.3z"/>
											<path class="st51" d="M204.2,75.9l0.2-0.4l0,0l0,0l-0.4-0.1l0,0l0,0L204.2,75.9C204.1,75.9,204.1,75.9,204.2,75.9
												L204.2,75.9z"/>
										</g>
										<g>
											<g>
												<path class="st52" d="M198.7,80.6L198.7,80.6L198.7,80.6l0.4-0.1l0,0l0,0v0.1H199H198.7L198.7,80.6L198.7,80.6
													L198.7,80.6L198.7,80.6z M199.2,80.4L199.2,80.4L199.2,80.4l0.4-0.1l0,0l0,0v0.1h-0.1l0,0h-0.1l0,0H199.2L199.2,80.4
													L199.2,80.4z M199.8,80.3L199.8,80.3L199.8,80.3l0.4-0.1l0,0l0,0v0.1h-0.1l0,0H200l0,0H199.8L199.8,80.3L199.8,80.3z
													 M203,80.2L203,80.2l-0.2-0.1h-0.1V80l0,0l0,0h0.1l0,0l0,0l0.3,0.1l0,0l0,0v0.1H203L203,80.2z M200.4,80.1L200.4,80.1
													L200.4,80.1L200.4,80.1h0.1l0,0l0.2-0.1h0.1v0.1h-0.1l0,0h-0.1l0,0H200.4L200.4,80.1L200.4,80.1z M202.6,80.1
													L202.6,80.1l-0.4-0.1l0,0l0,0v-0.1h0.1l0,0h0.1l0,0h0.1L202.6,80.1L202.6,80.1L202.6,80.1z M203.2,80l0.1-0.1l0.1-0.2
													v-0.1l0.1,0.1l0,0l0,0l-0.1,0.3l0,0l-0.1,0.1L203.2,80L203.2,80z M201,79.9L201,79.9L201,79.9l0.4-0.1l0,0l0,0v0.1h-0.1
													l0,0h-0.1l0,0H201L201,79.9L201,79.9z M202,79.9L202,79.9l-0.3-0.1h-0.1h-0.1l0,0l0,0v-0.1h0.1l0,0l0,0l0.2,0.1l0,0h0.1
													L202,79.9L202,79.9L202,79.9z M203.5,79.5L203.5,79.5L203.5,79.5l0.2-0.4l0.1,0.1l-0.1,0.3l0,0v0.1v0.1l0,0l0,0
													L203.5,79.5L203.5,79.5z"/>
											</g>
											<g>
												<path class="st52" d="M203.3,79l-0.1-0.1l0.8-0.4l0.1,0.8L203.3,79L203.3,79z M204,79.1l-0.1-0.4l-0.4,0.2L204,79.1
													L204,79.1z"/>
											</g>
										</g>
									</g>
								</g>
								<g>
									<polygon class="st47" points="197.8,69.6 197.8,63.3 197.4,63.3 197.4,69.6 197.4,70 197.8,70 204.1,70 204.1,69.6 
																			"/>
									<g>
										<rect x="198.3" y="67.8" class="st18" width="1.1" height="1.3"/>
										<rect x="199.8" y="66.8" class="st43" width="1.1" height="2.4"/>
										<rect x="201.3" y="67.2" class="st16" width="1.1" height="2"/>
										<rect x="202.7" y="65.4" class="st53" width="1.1" height="3.7"/>
									</g>
									<polygon class="st47" points="204,63.4 203,63.5 203.3,63.8 201.4,65.4 200.4,64.9 198.3,66.6 198.3,67.2 200.5,65.5 
										201.5,65.9 203.6,64.1 203.8,64.4 									"/>
								</g>
								<g>
									<polygon class="st18" points="176.1,97 178.1,93.2 178.8,94.4 179.5,92.3 180.1,94.5 182,89.8 183.3,94.5 184.3,92.9 
										188.2,94.9 189.6,92.7 191.4,92 193.5,88.5 194.6,88 194.6,97 									"/>
								</g>
							</g>
						</g>
					</g>
				</g>
			</g>
			<g>
				<g>
					<path class="st54" d="M179.5,37.4c-0.6,0.5-0.9,1.2-0.8,1.9c-0.4,0.4-0.8,0.3-1,0.3c-1.2-0.1-2.6-1-3.6-2.4
						c-0.1-0.1-0.1-0.2-0.2-0.2c-0.1,0-0.1,0.1-0.2,0.2l-1.6,2.4c0,0-0.5,0.7-0.2,1.1c0.2,0.2,0.4,0.3,0.7,0.3h0.1
						c0.6,0,1,0.3,1.4,0.8c0.6,0.9,0.4,2.1-0.5,2.7c-0.9,0.6-2.1,0.4-2.7-0.5c-0.1-0.1-0.1-0.2-0.2-0.3c-0.1-0.2-0.1-0.2-0.1-0.3
						c-0.2-0.4-0.7-0.5-0.9-0.3l-2,2.9c-0.1,0.1-0.2,0.3-0.1,0.3c0.9,0.1,2.2,1,3.4,2.4c0.1,0.1,0.5,0.5-0.3,1
						c-0.2,0.1-0.3,0.1-0.5,0.2c-0.9,0.6-1.1,1.8-0.5,2.7s1.8,1.1,2.7,0.5c0.6-0.4,0.9-1.1,0.8-1.7c0.4-0.4,1.1-0.3,1.2-0.3
						c0.9,0.2,2.1,1,3.1,2.3c0.1,0.1,0.4,0,0.5-0.2l2-2.9c0,0,0.1-0.2,0-0.4c-0.1-0.1-0.2-0.2-0.5-0.1c-0.6,0.2-1.3-0.2-1.7-0.8
						c-0.6-0.9-0.4-2.1,0.5-2.7c0.9-0.6,2.1-0.4,2.7,0.5c0.1,0.1,0.2,0.3,0.2,0.4c0,0.1,0,0.1,0.1,0.2c0.2,0.2,0.4,0.2,0.6,0.2
						l0.1-0.1l2.1-3.1c0,0,0.1-0.1,0-0.1c-1.2-0.2-2.4-1-3.3-2.3c0-0.1-0.2-0.3-0.2-0.4c-0.1-0.3,0-0.6,0.3-0.8
						c0.2-0.1,0.4-0.2,0.6-0.3c0.9-0.6,1-1.7,0.4-2.6C181.5,36.9,180.3,36.7,179.5,37.4z"/>
					<path class="st54" d="M163.9,46.1c-0.5-0.1-0.9-0.4-1.2-0.8l0,0c-0.4-0.5-0.6-1.2-0.4-1.8l0,0c0-0.2,0.1-0.4,0.2-0.5l0,0
						c0.1-0.3,0-0.4,0-0.4l0,0c0,0-0.1-0.1-0.2-0.1l0,0c-1.7-0.2-3.1,0-3.7,0.4l0,0l0,0l0,0c-0.2,0.1-0.4,0-0.4-0.1l0,0
						c-0.1-0.2-0.1-0.3-0.1-0.4l0,0l-0.4-3.2l0,0c0-0.2,0.1-0.4,0.2-0.5l0,0c0.3-0.2,0.7-0.2,1-0.1l0,0c0.1,0,0.6,0.2,0.6,0.2l0,0
						c0.4,0.1,0.8,0,1.1-0.3l0,0c0.3-0.3,0.6-0.6,0.7-1.1l0,0c0.1-0.5,0-1-0.3-1.3l0,0c-0.2-0.3-0.5-0.5-0.9-0.5l0,0
						c-0.5-0.1-0.9-0.1-1.3,0.1l0,0l0,0l-0.1,0.1l0,0c-0.2,0.2-0.5,0.3-0.8,0.2l0,0c-0.2,0-0.4-0.2-0.5-0.3l0,0
						c-0.3-0.4-0.3-0.8-0.3-0.8l0,0l-0.3-2.5c0,0,0-0.1,0-0.2l0,0c0-0.1,0-0.2,0.1-0.3l0,0c0.1,0,0.1-0.1,0.2-0.1l0,0h0.1h0.1
						c0.1,0,0.2,0,0.2,0.1l0,0c1.5,0.3,2.9,0.1,3.8-0.5l0,0c0,0,0,0,0.1,0l0,0c0.1-0.1,0.2-0.2,0.3-0.4l0,0
						c-0.1-0.1-0.2-0.2-0.2-0.2l0,0c-0.4-0.5-0.6-1.2-0.4-1.8l0,0l0,0c0.1-0.5,0.4-0.9,0.8-1.2l0,0c0.5-0.4,1.2-0.6,1.8-0.4l0,0
						c0.5,0.1,0.9,0.4,1.2,0.8l0,0c0.4,0.5,0.6,1.2,0.4,1.8l0,0c0,0.2-0.1,0.3-0.2,0.5l0,0c0,0.2,0,0.4,0.1,0.5l0,0l0,0l0,0l0,0l0,0
						c0,0,0,0,0.1,0l0,0h0.1l0,0c1.4,0.3,2.7,0.1,3.6-0.4l0,0c0.1,0,0.2-0.1,0.3-0.1l0,0c0.1,0,0.2,0.1,0.2,0.1l0,0
						c0.1,0.2,0.1,0.2,0.1,0.2l0,0l0.5,3.6c0,0,0,0.1,0,0.3l0,0c-0.1,0.1-0.1,0.2-0.2,0.3l0,0c-0.2,0.1-0.4,0.2-0.6,0.1l0,0
						c-0.1,0-0.2-0.1-0.3-0.1l0,0c-0.1-0.1-0.2-0.1-0.4-0.1l0,0c-0.5-0.1-0.9,0-1.3,0.3l0,0c-0.3,0.2-0.5,0.5-0.5,0.9l0,0
						c-0.1,0.5,0,0.9,0.3,1.3l0,0c0.2,0.3,0.5,0.5,0.9,0.5l0,0c0.4,0.1,1,0,1.2-0.2l0,0c0.1-0.1,0.1-0.1,0.1-0.1l0,0
						c0.1-0.1,0.1-0.2,0.2-0.3l0,0c0.2-0.1,0.4-0.1,0.6-0.1l0,0c0.2,0,0.3,0.1,0.4,0.2l0,0c0.1,0.1,0.1,0.2,0.1,0.2l0,0l0,0l0.5,3.3
						c0,0.2,0,0.5-0.2,0.7l0,0c-0.1,0.1-0.2,0.1-0.4,0.1l0,0c-1.5-0.2-2.8,0-3.5,0.3l0,0l0,0l0,0l0,0l0,0c-0.1,0.1-0.3,0.3-0.4,0.6
						l0,0l0.1,0.1l0,0c0.4,0.5,0.6,1.2,0.4,1.8l0,0c-0.1,0.5-0.4,0.9-0.8,1.2l0,0C165.2,46.1,164.5,46.3,163.9,46.1L163.9,46.1z
						 M162.3,42c0,0,0.3,0,0.6,0.3l0,0c0.2,0.2,0.2,0.5,0.1,0.9l0,0l0,0l0,0c-0.1,0.1-0.1,0.3-0.1,0.4l0,0c-0.1,0.5,0,0.9,0.3,1.3
						l0,0c0.2,0.3,0.5,0.5,0.9,0.5l0,0c0.5,0.1,0.9,0,1.3-0.3l0,0c0.3-0.2,0.5-0.5,0.5-0.9l0,0c0.1-0.5,0-0.9-0.3-1.3l0,0
						c0-0.1-0.1-0.1-0.1-0.2l0,0l-0.1-0.1v-0.2c0.1-0.6,0.5-0.9,0.7-1.1l0,0l0.1-0.1l0,0c0.9-0.5,2.2-0.6,3.8-0.4l0,0v-0.1l0,0
						l-0.4-3.3l0,0l0,0l0,0c0,0,0,0-0.1,0l0,0c0,0,0,0-0.1,0.1l0,0c-0.1,0.1-0.2,0.2-0.3,0.3l0,0c-0.5,0.4-1.1,0.5-1.8,0.3l0,0
						c-0.5-0.1-0.9-0.4-1.2-0.8l0,0c-0.4-0.5-0.6-1.2-0.4-1.8l0,0c0.1-0.5,0.4-0.9,0.8-1.2l0,0c0.5-0.4,1.2-0.6,1.8-0.4l0,0
						c0.2,0,0.4,0.1,0.5,0.2l0,0l0,0l0,0h0.1l0,0c0.1,0,0.1,0,0.1,0l0,0c0,0,0,0,0.1-0.1l0,0l-0.4-3.2c-1,0.5-2.3,0.6-3.7,0.3l0,0
						c-0.1,0-0.2-0.1-0.4-0.2l0,0c-0.1,0-0.1-0.1-0.2-0.2l0,0c-0.2-0.3-0.3-0.6-0.2-1l0,0v-0.1v-0.1c0.1-0.1,0.1-0.2,0.1-0.4l0,0
						c0.1-0.5,0-0.9-0.3-1.3l0,0c-0.2-0.3-0.5-0.5-0.9-0.5l0,0c-0.5-0.1-0.9,0-1.3,0.3l0,0c-0.3,0.2-0.5,0.5-0.5,0.9l0,0l-0.3-0.1
						l0.3,0.1c-0.1,0.5,0,0.9,0.3,1.3l0,0c0.1,0.1,0.2,0.2,0.3,0.3l0,0l0.1,0.1v0.2c0,0.6-0.4,0.9-0.5,1l0,0c0,0-0.1,0-0.1,0.1l0,0
						c-1,0.7-2.6,1-4.2,0.7l0,0l0.3,2.4c0,0,0,0.1,0,0.2l0,0c0,0.1,0.1,0.2,0.1,0.3l0,0c0.1,0.1,0.1,0.1,0.2,0.1l0,0
						c0.1,0,0.3,0,0.4-0.1l0,0c0,0,0,0,0.1-0.1l0,0v-0.1l0,0c0.5-0.4,1.2-0.4,1.8-0.2l0,0c0.5,0.1,0.9,0.4,1.2,0.8l0,0
						c0.4,0.5,0.6,1.2,0.4,1.9l0,0c-0.1,0.6-0.4,1.1-0.9,1.4l0,0c-0.4,0.4-1,0.5-1.6,0.4l0,0c-0.1,0-0.5-0.1-0.7-0.2l0,0
						c-0.2-0.1-0.4,0-0.4,0l0,0l0,0l0,0l0.4,3C159.4,41.9,160.7,41.8,162.3,42L162.3,42z"/>
				</g>
				<g>
					<path class="st54" d="M183.3,191.5v12.4c0,0.9-0.7,1.7-1.7,1.7h-6.5h-6.3c-0.9,0-1.7-0.7-1.7-1.7v-17.2c0-0.9,0.7-1.7,1.7-1.7
						h3.9v0.2h-0.6c-0.3,0-0.5,0.1-0.6,0.4h-3.2v18.7h6.7h6.9v-11.2c-0.1,0.1-0.2,0.3-0.3,0.4V204H175h-6.4v-18h2.8l0,0
						c0,0.4,0.3,0.6,0.6,0.6h2.9h3.1c0.4,0,0.6-0.3,0.6-0.6l0,0h2.8v1.8c0.1-0.1,0.1-0.2,0.2-0.3l0.1-0.1v-1.7h-3.2
						c-0.1-0.2-0.3-0.4-0.6-0.4h-0.6V185h3.9c0.7,0,1.2,0.4,1.5,1c0.1-0.1,0.2-0.2,0.3-0.2c-0.3-0.7-1-1.1-1.8-1.1h-3.9v-0.1
						c0-0.4-0.3-0.7-0.7-0.7h-0.9c0-0.4-0.4-0.8-0.8-0.8h-0.1c-0.4,0-0.7,0.4-0.7,0.8h-0.9c-0.4,0-0.7,0.3-0.7,0.7v0.1h-3.9
						c-1.1,0-2,0.9-2,2v17.2c0,1.1,0.9,2,2,2h12.7c1.1,0,2-0.9,2-2V191c0,0.1-0.1,0.1-0.1,0.2C183.5,191.2,183.4,191.3,183.3,191.5z
						 M175.2,183.5L175.2,183.5c0.3,0,0.5,0.2,0.5,0.4s-0.2,0.4-0.4,0.4h-0.1c-0.2,0-0.3-0.2-0.3-0.4S175,183.6,175.2,183.5z
						 M173,185L173,185l4.5-0.1v0.1v0.2h-2.3H173V185z"/>
					<path class="st54" d="M172.8,188.6h-2.4v2.4h2.4V188.6z M172.4,190.6h-1.6V189h1.6V190.6z"/>
					<path class="st54" d="M172.8,193.9h-2.4v2.4h2.4V193.9z M172.4,195.9h-1.6v-1.6h1.6V195.9z"/>
					<path class="st54" d="M170.4,201.7h2.4v-2.4h-2.4V201.7z M170.8,199.7h1.6v1.6h-1.6V199.7z"/>
					<polygon class="st54" points="180,189.6 175.2,189.6 173.5,189.6 173.5,189.9 175.2,189.9 180,189.9 					"/>
					<path class="st54" d="M178,195.3c0.1-0.1,0.1-0.2,0.2-0.4h-3h-1.7v0.4h1.7H178z"/>
					<polygon class="st54" points="173.5,200.6 175.2,200.6 180,200.6 180,200.3 175.2,200.3 173.5,200.3 					"/>
					<path class="st54" d="M181.8,193.1c0.1-0.1,0.2-0.3,0.3-0.4c0.2-0.2,0.3-0.4,0.5-0.6l-0.5-0.3l-0.3-0.2L181,191
						c-0.1,0.2-0.3,0.4-0.4,0.7c-0.6,1-1.2,2.1-2,3.3c-0.1,0.1-0.1,0.2-0.2,0.4c-0.3,0.6-0.7,1.2-1.1,1.8l0,0v0.1
						c-0.1,0.2-0.1,0.3-0.2,0.4c-0.2,0.4-0.3,0.7-0.4,0.8c0,0-0.1,0.1-0.1,0.2c0,0.1,0,0.1-0.1,0.2c0,0.1,0,0.1,0,0.1
						c0,0.1-0.1,0.3-0.1,0.4c0.1,0,0.1-0.1,0.2-0.1c0.1,0,0.1-0.1,0.2-0.1c0.1-0.1,0.2-0.1,0.2-0.2c0,0,0,0,0.1-0.1c0,0,0,0,0.1-0.1
						c0,0,0,0,0.1-0.1s0.2-0.2,0.3-0.3l0.1-0.1c0.1-0.1,0.2-0.3,0.4-0.4l0.1-0.1l0,0l0,0c0.5-0.6,0.9-1.1,1.3-1.7
						c0.4-0.5,0.8-1,1.1-1.4C181,194.1,181.4,193.6,181.8,193.1z M177.1,198.5l-0.2-0.1c0.1-0.2,0.3-0.6,0.5-1.1l0.5,0.3
						C177.5,198.1,177.3,198.3,177.1,198.5z"/>
					<path class="st54" d="M186.6,186.1l-1.2-1.8l-0.9,1.3l0,0c0,0.1-0.1,0.1-0.1,0.2c0,0.1-0.1,0.1-0.1,0.2h-0.1l0,0h-0.1
						c0,0,0,0-0.1,0c0,0,0,0-0.1,0c0,0-0.1,0-0.2,0c-0.1,0-0.1,0-0.2,0.1c0,0,0,0-0.1,0s-0.1,0.1-0.2,0.1c-0.1,0-0.1,0.1-0.2,0.1
						c-0.1,0.1-0.1,0.1-0.2,0.2c-0.2,0.2-0.4,0.5-0.6,0.8c-0.1,0.1-0.1,0.2-0.2,0.3c0,0.1-0.1,0.1-0.1,0.2c-0.1,0.1-0.2,0.3-0.3,0.4
						c0,0,0,0,0,0.1c-0.2,0.4-0.5,0.7-0.7,1.1c-0.2,0.2-0.3,0.5-0.5,0.7c-0.1,0.2-0.3,0.4-0.4,0.6c-0.1,0.2-0.2,0.4-0.4,0.5
						c-0.1,0.1-0.2,0.3-0.3,0.4c-0.1,0.1-0.1,0.2-0.1,0.2l0,0c0,0,0,0,0.1,0s0.1,0,0.2,0c0.1,0,0.2-0.1,0.3-0.1s0.1-0.1,0.2-0.2
						c0.1-0.1,0.1-0.1,0.2-0.2c0.1-0.1,0.2-0.3,0.2-0.5c0.1-0.1,0.1-0.2,0.2-0.3c0.2-0.3,0.5-0.6,0.7-1c0-0.1,0.1-0.1,0.1-0.2
						c0.1-0.1,0.2-0.3,0.3-0.4c0.1-0.1,0.1-0.2,0.2-0.3c0.2-0.3,0.4-0.5,0.5-0.7c0.2-0.3,0.3-0.4,0.3-0.5c0,0,0,0,0.1-0.1
						c0,0,0.1,0,0.1-0.1l0.1-0.1l0,0l0,0c-0.1,0.1-0.1,0.2-0.2,0.3c-0.3,0.4-0.5,0.8-0.8,1.2c0,0,0,0,0,0.1
						c-0.1,0.2-0.2,0.4-0.4,0.5c0,0,0,0.1-0.1,0.1l0,0c-0.1,0.1-0.2,0.3-0.3,0.4c0,0.1-0.1,0.1-0.1,0.2c-0.1,0.2-0.2,0.3-0.3,0.5
						l0.4,0.3l0.3,0.2l0.9,0.6c0.1-0.1,0.2-0.3,0.3-0.4l0,0c0.1-0.2,0.2-0.3,0.3-0.5l0,0c0.5-0.8,1.1-1.6,1.8-2.6
						c0.3-0.4,0.5-0.8,0.8-1.2l0,0L186.6,186.1z M183.7,189.6l-0.4,0.6l-0.4,0.5l0,0l-0.5-0.3l-0.3-0.2l1.1-1.7l0.4-0.6l0.3-0.5
						l0.3-0.5l0.4-0.5l0.8,0.5L183.7,189.6z M184.9,185.8l-0.1-0.1l0.7-1l0.9,1.4l-0.3,0.5C185.6,186.3,185.3,186,184.9,185.8z"/>
				</g>
				<g>
					<polygon class="st54" points="208.8,103.5 222.2,103.5 222.2,105.8 222.4,105.8 222.6,105.8 222.6,103.2 208.4,103.2 
						208.4,120.6 212.2,120.6 212.2,120.4 212.2,120.2 208.8,120.2 					"/>
					<rect x="209.5" y="109.9" class="st54" width="2.8" height="0.6"/>
					<rect x="209.5" y="108.3" class="st54" width="2.8" height="0.6"/>
					<rect x="209.5" y="106.6" class="st54" width="2.8" height="0.6"/>
					<rect x="209.5" y="104.9" class="st54" width="10.2" height="0.6"/>
					<rect x="209.5" y="111.6" class="st54" width="2.8" height="0.6"/>
					<rect x="209.5" y="113.3" class="st54" width="2.8" height="0.6"/>
					<rect x="209.5" y="114.9" class="st54" width="2.8" height="0.6"/>
					<rect x="209.5" y="116.6" class="st54" width="2.8" height="0.6"/>
					<rect x="209.5" y="118.3" class="st54" width="2.8" height="0.6"/>
					<path class="st54" d="M225.3,123.2H213v-2.6v-0.2v-0.2v-1.4v-0.6v-1.1v-0.6v-1.1v-0.6v-1.1v-0.6V112v-0.6v-1.1v-0.6v-1.1V108
						v-1.1v-0.6l0,0h9.3h0.2h0.1v1.4h-0.1h-0.2h-8.1v0.4v0.2h6.4h1.7h0.2h0.1v1.1h-0.1h-0.2h-8.6v0.4v0.2h7.6h1h0.2h0.1v0.1
						c0,0.1,0,0.1,0.1,0.2c0,0,0,0,0.1,0h3.7v11.1l0.2,0.2l0.2,0.2v-11.7l-0.1-0.1l-3.9-3.9l-0.1-0.1h-0.2h-0.2h-0.2h-9.6v0.4v0.6
						v1.1v0.6v1.1v0.6v1.1v0.6v1.1v0.6v1.1v0.6v1.1v0.6v1.1v0.6v1.4v0.2v0.2v3h13.1l-0.2-0.2L225.3,123.2z M222.9,109.6v-1.1v-0.6
						v-1.1l3.3,3.3h-0.8h-2.5V109.6z"/>
					<path class="st54" d="M225.4,112.9h-2.8h-0.2h-0.2h-1.7c0.2,0.1,0.3,0.2,0.5,0.3c0,0,0,0,0.1,0l0.1,0.1c0,0,0,0,0.1,0.1h1h0.2
						h0.2h2.8v-0.5H225.4z"/>
					<path class="st54" d="M216.5,113.3c0.1-0.1,0.3-0.2,0.5-0.3h-3.3v0.3v0.2h2.6C216.3,113.4,216.4,113.3,216.5,113.3z"/>
					<polygon class="st54" points="225.4,111.3 222.6,111.3 222.4,111.3 222.2,111.3 213.6,111.3 213.6,111.6 213.6,111.8 
						220.5,111.8 222.2,111.8 222.4,111.8 222.6,111.8 225.4,111.8 					"/>
					<path class="st54" d="M225.4,114.6h-2.8h-0.2h-0.2H222c0.1,0.2,0.1,0.4,0.2,0.6h0.1h0.2h0.2h2.8v-0.6H225.4z"/>
					<path class="st54" d="M220.8,114.8c0-0.1-0.1-0.1-0.1-0.2h-0.5L219,117h1.7c0-0.1,0.1-0.1,0.1-0.2s0.1-0.1,0.1-0.2l0,0
						c0-0.1,0.1-0.2,0.1-0.3c0.1-0.4,0-0.7-0.1-1.1C220.9,115,220.9,114.9,220.8,114.8z"/>
					<path class="st54" d="M214.3,114.6v0.3v0.2h1.1c0-0.1,0-0.2,0.1-0.2c0-0.1,0.1-0.2,0.1-0.3H214.3z"/>
					<path class="st54" d="M225.4,116.3h-2.8h-0.2h-0.2h-0.1c0,0.2-0.1,0.4-0.1,0.6h0.2h0.2h0.2h2.8L225.4,116.3L225.4,116.3z"/>
					<path class="st54" d="M215.3,116.3h-1.7v0.3v0.2h1.8c0-0.1,0-0.2-0.1-0.2C215.4,116.5,215.4,116.4,215.3,116.3z"/>
					<polygon class="st54" points="225.4,117.9 222.6,117.9 222.4,117.9 222.2,117.9 221.9,117.9 222.2,118.3 222.4,118.4 
						222.5,118.5 222.6,118.5 222.7,118.5 222.9,118.3 223.1,118.5 225.4,118.5 					"/>
					<path class="st54" d="M216.3,118.3c-0.1-0.1-0.2-0.2-0.3-0.3h-2.4v0.3v0.2h2.9C216.5,118.5,216.5,118.4,216.3,118.3
						C216.4,118.3,216.4,118.3,216.3,118.3z"/>
					<polygon class="st54" points="225.4,120.2 225.4,119.6 224.3,119.6 224.9,120.2 					"/>
					<polygon class="st54" points="213.6,119.6 213.6,120.2 222,120.2 221.5,119.7 221.7,119.6 					"/>
					<polygon class="st54" points="213.6,121.9 223.8,121.9 223.2,121.3 213.6,121.3 					"/>
					<path class="st54" d="M216.7,114.8c0,0.1-0.1,0.1-0.1,0.2c0,0,0,0.1-0.1,0.1v0.1c0,0.1-0.1,0.2-0.1,0.3c0,0.2,0,0.5,0,0.7
						c0,0.1,0,0.2,0.1,0.3c0,0.1,0.1,0.1,0.1,0.2l0,0c0,0.1,0.1,0.1,0.1,0.2h1.3L216.7,114.8L216.7,114.8z"/>
					<path class="st54" d="M216.8,114.6L216.8,114.6L216.8,114.6L216.8,114.6z"/>
					<polygon class="st54" points="219.1,114.6 217.7,114.6 218.5,115.9 					"/>
					<path class="st54" d="M219.5,115.5l0.2-0.3l0.1-0.2l0.1-0.2l0.1-0.2l0.3-0.6c-0.1-0.1-0.2-0.1-0.3-0.2c0,0-0.1,0-0.1-0.1v0.1
						l-0.4,0.7l-0.1,0.2l-0.1,0.2l-0.1,0.2l-0.2,0.3l-0.4,0.7l-0.1,0.2l-0.1-0.2l-0.4-0.7l-0.2-0.3l-0.1-0.2l-0.1-0.2l-0.1-0.2l0,0
						h-0.1l-0.3,0.2l0,0l0.1,0.1l0.1,0.2l0.2,0.3l0.4,0.7l0.2,0.3l0.1,0.2l0.1,0.2l0.1,0.1l0.1,0.2l0.1-0.2l0.1-0.1l0.1-0.2l0.1-0.2
						l0.2-0.3L219.5,115.5z"/>
					<path class="st54" d="M227.2,122.5l-0.2-0.2l-0.2-0.2l-0.2-0.2l-0.2-0.2l-1.8-1.6l-0.6-0.6l-1.1-1l-0.3,0.3l0,0l-0.2-0.2
						l-0.2-0.2l0,0l-0.6-0.6l-0.2-0.2c0.2-0.3,0.4-0.6,0.5-0.9c0.1-0.2,0.1-0.4,0.1-0.6c0-0.4,0-0.7,0-1.1c0-0.2-0.1-0.4-0.2-0.6
						c-0.1-0.3-0.3-0.6-0.5-0.9c-0.1-0.1-0.1-0.1-0.2-0.2l0,0c-0.1-0.1-0.1-0.1-0.2-0.2c-0.2-0.1-0.4-0.2-0.6-0.3
						c-0.9-0.4-2-0.4-2.9,0c-0.2,0.1-0.4,0.2-0.6,0.3c-0.1,0.1-0.2,0.2-0.3,0.2l-0.1,0.1c-0.1,0.1-0.1,0.1-0.2,0.2
						c-0.2,0.2-0.3,0.5-0.4,0.7c0,0.1-0.1,0.1-0.1,0.2s0,0.1,0,0.2l0,0c0,0.1,0,0.1-0.1,0.2c0,0.1,0,0.2-0.1,0.3c0,0.2,0,0.5,0,0.7
						c0,0.1,0,0.2,0.1,0.3c0,0.1,0,0.2,0.1,0.2c0,0.1,0.1,0.2,0.1,0.3c0.1,0.3,0.3,0.5,0.5,0.7c0.1,0.1,0.2,0.2,0.3,0.3l0,0
						c0.1,0.1,0.2,0.2,0.3,0.2c0.2,0.1,0.4,0.3,0.6,0.3c0.8,0.3,1.7,0.3,2.4,0c0.2-0.1,0.4-0.2,0.6-0.3c0.1-0.1,0.2-0.1,0.3-0.2
						l0.2,0.2l0.1,0.1l0.9,0.8l-0.2,0.2l-0.1,0.1l0.4,0.4l0.1,0.1l0.1,0.1l0.2,0.2l0.9,0.8l0.6,0.6l1.5,1.4l0.2,0.2l0.2,0.2l0.2,0.2
						l0.2,0.2l0.1,0.1l0.1-0.1l0.2-0.2l0.2-0.2l0.2-0.2l0.4-0.5L227.2,122.5z M221.2,116.3c0,0.1,0,0.2-0.1,0.3v0.1
						c0,0,0,0.1-0.1,0.1c0,0.1-0.1,0.1-0.1,0.2l-0.1,0.1c-0.2,0.3-0.4,0.6-0.7,0.7c-0.2,0.2-0.5,0.3-0.8,0.3c-0.4,0.1-0.9,0.1-1.3,0
						c-0.1,0-0.1,0-0.2-0.1c-0.2-0.1-0.4-0.2-0.5-0.3c-0.3-0.2-0.5-0.5-0.7-0.7l-0.1-0.1c0-0.1-0.1-0.1-0.1-0.2s-0.1-0.2-0.1-0.2
						c0-0.1-0.1-0.2-0.1-0.3c0-0.2,0-0.5,0-0.7c0-0.1,0-0.2,0.1-0.3c0-0.1,0-0.1,0.1-0.2l0,0c0-0.1,0-0.1,0.1-0.2
						c0-0.1,0.1-0.1,0.1-0.2c0.2-0.3,0.4-0.5,0.7-0.7c0.2-0.1,0.4-0.3,0.6-0.3c0.6-0.2,1.2-0.2,1.8,0c0,0,0,0,0.1,0l0,0
						c0,0,0,0,0.1,0c0.2,0.1,0.3,0.2,0.5,0.3c0,0,0,0,0.1,0l0,0c0.1,0,0.1,0.1,0.1,0.1s0,0,0.1,0.1c0.2,0.2,0.3,0.3,0.4,0.5
						c0,0.1,0.1,0.1,0.1,0.2c0.1,0.1,0.1,0.3,0.1,0.4C221.3,115.5,221.3,115.9,221.2,116.3z"/>
				</g>
				<g>
					<path class="st54" d="M40.9,105.4H27.8v0.4H41c0.5,0,1,0.2,1.3,0.5H32v1.2h-0.4v-1.2H21.4c0.3-0.3,0.8-0.4,1.2-0.5v-0.4
						c-1.3,0.1-2.4,1.1-2.4,2.5v14.9c0,1.4,1.1,2.5,2.5,2.5h18.2c1.4,0,2.5-1.1,2.5-2.5v-14.9C43.4,106.5,42.3,105.4,40.9,105.4z
						 M32.4,106.6h9.8V124h-9.8v-0.7h0.5c0.1,0.2,0.2,0.4,0.4,0.4c0.3,0,0.5-0.3,0.5-0.7c0-0.4-0.2-0.7-0.5-0.7
						c-0.1,0-0.2,0-0.3,0.1c0,0,0,0-0.1,0h-0.5v-2h0.5c0.1,0.2,0.2,0.3,0.4,0.3c0.3,0,0.5-0.3,0.5-0.7c0-0.4-0.2-0.7-0.5-0.7
						c-0.1,0-0.2,0.1-0.3,0.2l0,0h-0.5v-2H33c0.1,0.2,0.2,0.3,0.4,0.3c0.3,0,0.5-0.3,0.5-0.7c0-0.4-0.2-0.7-0.5-0.7
						c-0.1,0-0.3,0.1-0.4,0.2h-0.5v-2H33c0.1,0.1,0.2,0.2,0.3,0.2c0.3,0,0.5-0.3,0.5-0.7c0-0.4-0.2-0.7-0.5-0.7
						c-0.2,0-0.3,0.1-0.4,0.3h-0.5v-2h0.5l0,0c0.1,0.1,0.2,0.2,0.3,0.2c0.3,0,0.5-0.3,0.5-0.7c0-0.4-0.2-0.7-0.5-0.7
						c-0.2,0-0.3,0.1-0.4,0.3h-0.5v-2h0.5c0,0,0,0,0.1,0c0.1,0.1,0.2,0.1,0.3,0.1c0.3,0,0.5-0.3,0.5-0.7c0-0.4-0.2-0.7-0.5-0.7
						c-0.2,0-0.3,0.1-0.4,0.4h-0.5v-1.3H32.4z M32,110.5h0.2h0.2h0.4h0.1c0.2,0,0.3,0.1,0.3,0.3s-0.1,0.3-0.3,0.3h-0.1h-0.5h-0.2H32
						h-0.4h-0.2h-0.2H31c0,0,0,0-0.1,0s-0.2-0.1-0.2-0.3c0-0.2,0.1-0.3,0.3-0.3l0,0h0.2h0.2h0.2H32z M31.6,110.4v-2H32v2H31.6z
						 M32,111.3v2h-0.4v-2H32z M31.4,113.5h0.2H32h0.2h0.2h0.4h0.1c0.2,0,0.3,0.1,0.3,0.3c0,0.2-0.1,0.3-0.3,0.3h-0.1h-0.4h-0.2H32
						h-0.4h-0.2h-0.2H31l0,0c-0.1,0-0.3-0.1-0.3-0.3c0-0.2,0.1-0.3,0.3-0.3l0,0h0.2H31.4z M32,114.3v2h-0.4v-2H32z M31.4,116.5h0.2
						H32h0.2h0.2h0.4h0.1c0.2,0,0.3,0.1,0.3,0.3c0,0.2-0.1,0.3-0.3,0.3h-0.1h-0.4h-0.2H32h-0.4h-0.2h-0.2H31l0,0
						c-0.2,0-0.3-0.1-0.3-0.3c0-0.2,0.1-0.3,0.3-0.3l0,0h0.2H31.4z M32,117.3v2h-0.4v-2H32z M31.4,119.5h0.2H32h0.2h0.2h0.5H33
						c0.2,0,0.3,0.1,0.3,0.3c0,0.2-0.1,0.3-0.3,0.3h-0.1h-0.4h-0.2H32h-0.4h-0.2h-0.2H31l0,0c-0.2,0-0.3-0.1-0.3-0.3
						c0-0.2,0.1-0.3,0.3-0.3l0,0h0.2H31.4z M32,120.3v2h-0.4v-2H32z M31.4,122.5h0.2H32h0.2h0.2h0.5H33c0.2,0,0.3,0.1,0.3,0.3
						c0,0.2-0.1,0.3-0.3,0.3h-0.1h-0.4h-0.2H32h-0.4h-0.2h-0.2H31l0,0c-0.2,0-0.3-0.1-0.3-0.3c0-0.2,0.1-0.3,0.3-0.3l0,0h0.2H31.4z
						 M31.6,107.6H32h0.2h0.2h0.4h0.1c0.2,0,0.3,0.1,0.3,0.3c0,0.2-0.1,0.3-0.3,0.3h-0.1h-0.5h-0.2H32h-0.4h-0.2h-0.2H31h-0.1
						c-0.1,0-0.2-0.1-0.2-0.3c0-0.2,0.1-0.3,0.3-0.3l0,0h0.2h0.2H31.6z M21.4,106.6h9.8v0.8H31l0,0c-0.1-0.3-0.3-0.4-0.5-0.4
						c-0.3,0-0.5,0.3-0.5,0.7c0,0.4,0.2,0.7,0.5,0.7c0.1,0,0.2,0,0.2-0.1c0.1,0,0.1,0.1,0.2,0.1h0.2v2H31l0,0
						c-0.1-0.2-0.2-0.4-0.4-0.4c-0.3,0-0.5,0.3-0.5,0.7c0,0.4,0.2,0.7,0.5,0.7c0.1,0,0.2,0,0.3-0.1c0.1,0,0.1,0,0.2,0h0.2v2H31l0,0
						c-0.1-0.2-0.2-0.3-0.4-0.3c-0.3,0-0.5,0.3-0.5,0.7c0,0.4,0.2,0.7,0.5,0.7c0.1,0,0.2-0.1,0.3-0.2H31h0.2v2H31c0,0,0,0-0.1,0
						c-0.1-0.2-0.2-0.3-0.4-0.3c-0.3,0-0.5,0.3-0.5,0.7c0,0.4,0.2,0.7,0.5,0.7c0.1,0,0.3-0.1,0.4-0.2H31h0.2v2H31h-0.1
						c-0.1-0.2-0.2-0.3-0.4-0.3c-0.3,0-0.5,0.3-0.5,0.7c0,0.4,0.2,0.7,0.5,0.7c0.2,0,0.3-0.1,0.4-0.3H31h0.2v2H31h-0.1
						c-0.1-0.1-0.2-0.2-0.4-0.2c-0.3,0-0.5,0.3-0.5,0.7c0,0.4,0.2,0.7,0.5,0.7c0.2,0,0.3-0.1,0.4-0.3c0,0,0,0,0.1,0h0.2v0.7h-9.8
						C21.4,123.5,21.4,106.6,21.4,106.6z M21,124c-0.3-0.4-0.5-0.8-0.5-1.3v-14.9c0-0.5,0.2-1,0.5-1.3V124z M40.9,124.8H22.7
						c-0.5,0-1-0.2-1.4-0.5h10.3v-1.1H32v1.1h10.3C41.9,124.6,41.5,124.8,40.9,124.8z M43,122.7c0,0.5-0.2,1-0.5,1.3v-17.5
						c0.3,0.4,0.5,0.8,0.5,1.3V122.7z"/>
					<rect x="21.9" y="107.8" class="st54" width="2.1" height="1.2"/>
					<rect x="27.6" y="107.8" class="st54" width="2.1" height="1.2"/>
					<rect x="21.9" y="110" class="st54" width="7.8" height="0.1"/>
					<rect x="21.9" y="111.7" class="st54" width="7.8" height="0.1"/>
					<rect x="21.9" y="113.4" class="st54" width="7.8" height="0.1"/>
					<rect x="21.9" y="115.1" class="st54" width="7.8" height="0.1"/>
					<rect x="21.9" y="116.9" class="st54" width="7.8" height="0.1"/>
					<rect x="21.9" y="118.6" class="st54" width="7.8" height="0.1"/>
					<rect x="21.9" y="120.3" class="st54" width="7.8" height="0.1"/>
					<rect x="21.9" y="122" class="st54" width="7.8" height="0.1"/>
					<rect x="40" y="107.8" class="st54" width="2.1" height="1.2"/>
					<rect x="34.3" y="107.8" class="st54" width="2.1" height="1.2"/>
					<rect x="34.3" y="110" class="st54" width="7.8" height="0.1"/>
					<rect x="34.3" y="116.9" class="st54" width="7.8" height="0.1"/>
					<rect x="34.3" y="118.6" class="st54" width="7.8" height="0.1"/>
					<rect x="34.3" y="120.3" class="st54" width="7.8" height="0.1"/>
					<rect x="34.3" y="122" class="st54" width="7.8" height="0.1"/>
					<polygon class="st54" points="25.5,105.4 25.5,105.5 25.5,105.7 25.5,106.1 27.4,106.1 27.4,105.7 27.4,105.5 27.4,105.4 
						27.4,103.8 26.5,104.6 26.3,104.4 25.5,103.8 25.5,103.8 25.5,103.8 25.5,104.4 					"/>
					<polygon class="st54" points="23,105.4 23,105.5 23,105.7 23,105.9 23,105.9 23,106.1 24.8,106.1 24.8,105.9 24.8,105.9 
						24.8,105.7 24.8,105.5 24.8,105.4 24.8,103.2 23.9,104.2 23,103.2 23,103.2 23,103.2 23,104 					"/>
					<path class="st54" d="M38.1,115.7l0.2-0.5H42v-0.1h-3.7l0.6-1.6H42v-0.1h-3l0.6-1.6H42v-0.1h-2.3l0.4-1l-0.3-0.2l-0.5,1.2h-1.9
						v-0.1l-0.3,0.1l0,0h-2.9v0.1h2.9l0.4,1.6h-3.3v0.1h3.3l0.4,1.6h-3.7v0.1H38L38.1,115.7z M37.5,111.8h1.8l-0.6,1.6H38
						L37.5,111.8z M37.9,113.5h0.7l-0.4,1L37.9,113.5z"/>
				</g>
				<g>
					<path class="st54" d="M82,39.6l0.1,0.2c0,0.1,0.1,0.2,0.1,0.3c0.1,0.2,0.1,0.3,0.2,0.5v-9.8H86v11.9h-3.7v-1.2
						c0,0.3-0.1,0.8-0.2,1.4c0,0.2-0.1,0.4-0.1,0.5l0,0c0,0,0,0.1,0,0.3l0.3-0.1l0.4,1.1l0.3-0.1c0.2-0.5,0.6-0.9,1.1-0.9l0,0
						c0.6,0,1.1,0.6,1.1,1.3s-0.5,1.3-1.1,1.3l0,0c-0.1,0-0.2,0-0.3-0.1l0.3,1.1h2.1V30H82V39.6z"/>
					<path class="st54" d="M84.2,45.9L84.2,45.9c-0.2,0-0.4-0.1-0.5-0.2l0.1,0.2C83.9,46,84,46,84.2,45.9L84.2,45.9L84.2,45.9
						c0.5,0.1,0.9-0.4,0.9-1s-0.4-1.1-0.9-1.1l0,0l0,0c-0.4,0-0.7,0.3-0.9,0.6l0,0l0.1,0.2c0.1-0.4,0.4-0.7,0.8-0.7l0,0
						c0.4,0,0.8,0.4,0.8,1S84.7,45.9,84.2,45.9z"/>
					<rect x="83" y="31.8" class="st54" width="2.3" height="0.9"/>
					<path class="st54" d="M88.9,29.5h-2.3v0.3V35v6.7v5h0.1h2.2h2.3v-0.4v-6V29.5H88.9z M90,45c-0.2,0.4-0.6,0.7-1,0.8l0,0
						c-0.6,0-1.2-0.6-1.2-1.3c0-0.4,0.2-0.8,0.5-1.1c0.2-0.2,0.4-0.2,0.7-0.2l0,0c0.6,0,1.1,0.6,1.1,1.3C90.1,44.6,90,44.8,90,45z
						 M90.7,39.8v2.4h-1.8H87v-6.6v-5.4h1.9h1.8V39.8z"/>
					<path class="st54" d="M88.9,43.3L88.9,43.3L88.9,43.3c-0.2,0-0.4,0.1-0.6,0.2c-0.3,0.2-0.4,0.5-0.4,0.9c0,0.6,0.4,1.1,1,1.1
						l0,0l0,0c0.4,0,0.7-0.3,0.8-0.6c0.1-0.1,0.1-0.3,0.1-0.5C89.9,43.8,89.5,43.3,88.9,43.3z M89.7,44.8c-0.1,0.3-0.4,0.6-0.7,0.6
						l0,0c-0.5,0-0.8-0.4-0.8-1c0-0.3,0.2-0.7,0.4-0.8c0.1-0.1,0.3-0.1,0.4-0.1l0,0c0.4,0,0.8,0.4,0.8,1
						C89.7,44.6,89.7,44.7,89.7,44.8z"/>
					<rect x="87.8" y="31.2" class="st54" width="2.3" height="0.9"/>
					<path class="st54" d="M76,45.5c0,0.1-0.1,0.2-0.1,0.2l0.2-0.1C76.1,45.6,76,45.5,76,45.5z"/>
					<path class="st54" d="M77,36v-0.3c-0.1-0.2-0.2-0.5-0.3-0.8V35v1C76.8,36,76.9,35.9,77,36C77,35.9,77,36,77,36z"/>
					<path class="st54" d="M76,46.9l-0.3-1c-0.2,0.2-0.5,0.3-0.7,0.3l0,0c-0.6,0-1.2-0.6-1.2-1.3c0-0.6,0.4-1.2,0.9-1.3
						c-0.1-0.2-0.2-0.4-0.3-0.6l-0.1-0.4h-1.1v-3.9v-8l0,0H75h1.8v1.8c0.1-0.1,0.2-0.1,0.3-0.1V30H75h-2.3v0.3v17H75h0.4l-0.1-0.1
						L76,46.9z"/>
					<path class="st54" d="M75,44c-0.1-0.1-0.1-0.1-0.2-0.2c-0.5,0-0.9,0.5-0.9,1.1s0.4,1.1,1,1.1l0,0l0,0c0.5,0,0.9-0.4,0.9-1
						c0-0.1,0-0.1,0-0.1s0-0.1-0.1-0.1v0.1c0,0.5-0.4,0.9-0.8,1l0,0c-0.5,0-0.9-0.4-0.9-1C74.1,44.4,74.5,44,75,44L75,44L75,44z"/>
					<rect x="73.8" y="31.8" class="st54" width="2.3" height="0.9"/>
					<path class="st54" d="M77.4,32.3L77.4,32.3c0.1,0,0.2,0,0.3,0v-2.9h1.9h1.8v7v1.4c0.1,0.1,0.2,0.2,0.2,0.3s0.1,0.2,0.1,0.2v0.1
						l0,0l0.1,0.4V37v-7.2v-1.1h-2.3h-2.3v1.1V30v2.3l0,0C77.3,32.4,77.3,32.3,77.4,32.3z"/>
					<rect x="78.4" y="30.5" class="st54" width="2.3" height="0.9"/>
					<path class="st54" d="M83.7,46.1l-0.1-0.3l-0.3-1v-0.1L83,44.8l-0.3,0.1h-0.1l-0.4-1.1H82h-0.1c0-0.1,0-0.1,0-0.2l0,0v-0.1
						c0,0,0,0,0-0.1v-0.1v-0.1c0,0,0-0.3,0.1-0.5c0-0.2,0.1-0.4,0.1-0.5c0.2-0.9,0.2-1.4,0.2-1.5c-0.1-0.2-0.1-0.4-0.2-0.6
						c0-0.1-0.1-0.2-0.1-0.3l-0.1-0.2l-0.1-0.4l-0.2-0.6v-0.1c0-0.1,0-0.1-0.1-0.2c0,0,0,0,0-0.1c-0.2-0.3-0.4-0.5-0.7-0.6
						c-0.2,0-0.5,0-0.7,0.3C80,38,80,38.1,80,38.2l-1.6-4.9c0-0.1,0-0.1-0.1-0.2c0-0.1-0.1-0.2-0.1-0.3s-0.1-0.2-0.2-0.2
						c0,0,0,0-0.1,0h-0.1l0,0c-0.1,0-0.2,0-0.2,0c-0.1,0-0.1,0-0.2,0l0,0c-0.1,0-0.1,0-0.2,0.1c-0.1,0-0.2,0.1-0.3,0.2
						c-0.1,0-0.1,0.1-0.2,0.2l-0.1,0.1c0,0.1-0.1,0.1-0.1,0.2c0,0.1,0,0.2,0,0.2c0,0.1,0,0.1,0.1,0.2l0.2,0.6v0.1
						c0.1,0.2,0.2,0.5,0.3,0.8c0.1,0.2,0.1,0.4,0.2,0.6V36c0.1,0.2,0.1,0.4,0.2,0.6l0,0l0,0c-0.1-0.1-0.1-0.1-0.2-0.1l0,0
						c-0.1,0-0.1,0-0.2,0H77c-0.1,0-0.1,0-0.2,0c-0.2,0-0.5,0.2-0.6,0.3C76,36.7,76,37,76.1,37.2l0.2,0.6c0,0.1,0,0.1,0.1,0.2
						c0,0.1,0.1,0.2,0.1,0.3c-0.1-0.1-0.2-0.4-0.3-0.7c-0.1-0.2-0.2-0.5-0.5-0.6c-0.4-0.2-0.8,0-1,0.3s-0.1,0.5,0,0.7v0.1
						c0.1,0.1,0.1,0.3,0.1,0.4c-0.2-0.3-0.6-0.4-0.9-0.3c-0.6,0.2-0.6,0.8-0.4,1.3c0.2,0.6,0.4,1.2,0.6,1.7c0.1,0.3,0.2,0.6,0.3,0.8
						l0.2,0.6l0.1,0.4c0.1,0.2,0.2,0.4,0.4,0.6c0.1,0.1,0.1,0.1,0.2,0.2c0.1,0.1,0.2,0.2,0.3,0.3c0.1,0,0.3,0.4,0.5,0.6
						c0.1,0.1,0.1,0.2,0.1,0.2l0,0c0,0,0,0.1,0.1,0.2c0,0.1,0.1,0.3,0.2,0.6l0,0l-0.4,0.1l0.4,1.1L76.3,47l-0.5,0.2l0,0l1,2.6h8.3
						L84,47.3L83.7,46.1z M76.8,33.2L76.8,33.2L76.8,33.2C76.7,33.1,76.8,33.1,76.8,33.2C76.8,33.1,76.8,33.1,76.8,33.2
						c0.1-0.2,0.1-0.2,0.2-0.3c0.1,0,0.1-0.1,0.2-0.1l0,0c0.1,0,0.1,0,0.2,0s0.1,0,0.2,0c0,0,0,0,0.1,0l0,0l0,0l0,0l0.1,0.3
						c0.1,0.2,0,0.4-0.1,0.6l0,0c-0.1,0.1-0.1,0.1-0.2,0.1c0,0,0,0-0.1,0s-0.1,0-0.2,0l0,0c-0.1,0-0.1-0.1-0.2-0.1
						C76.9,33.6,76.8,33.5,76.8,33.2L76.8,33.2z M76.3,44.8c0,0-0.2-0.2-0.3-0.4c-0.2-0.2-0.3-0.4-0.4-0.5c0,0,0,0-0.1-0.1
						c-0.4-0.3-0.6-0.6-0.7-0.9l-0.1-0.3L74.5,42c-0.1-0.2-0.2-0.5-0.3-0.8c-0.3-0.8-0.7-1.9-0.7-2.1l0,0l0,0c0-0.2,0.2-0.4,0.4-0.5
						c0.2-0.1,0.5,0,0.6,0.3s0.2,0.4,0.3,0.4h0.1c0.3-0.1,0.1-0.5-0.1-1.1c0-0.1,0-0.1,0-0.1c-0.1-0.2-0.1-0.3,0-0.5
						c0.2-0.2,0.5-0.3,0.7-0.2s0.3,0.2,0.4,0.4c0,0.1,0.3,0.8,0.5,0.9c0.2,0,0.3,0,0.3-0.1c0.1-0.1,0.1-0.1,0-0.2
						c0-0.1-0.1-0.2-0.1-0.3c0,0,0-0.1-0.1-0.1l-0.2-0.6c-0.1-0.2,0-0.4,0.1-0.5s0.2-0.2,0.4-0.2c0.1,0,0.1,0,0.2,0h0.1
						c0.1,0,0.1,0,0.2,0.1l0,0l0,0c0,0,0.1,0.3,0.2,0.5c0,0.1,0.1,0.3,0.1,0.4l0.1,0.2V38v0.1c0,0.1,0,0.1,0.1,0.2
						c0.1,0.2,0.3,0.2,0.4,0.1c0.1-0.1,0.1-0.1,0-0.2c0-0.1-0.2-0.8-0.6-1.7c-0.1-0.2-0.2-0.5-0.3-0.8c-0.1-0.2-0.1-0.4-0.2-0.6V35
						c-0.1-0.2-0.1-0.4-0.2-0.6v-0.1l-0.1-0.2l0.1,0.1c0.1,0,0.1,0.1,0.2,0.1l0,0c0.1,0,0.1,0,0.2,0l0,0h0.1c0.1,0,0.1,0,0.2-0.1
						c0.1,0,0.1-0.1,0.2-0.2c0.1-0.1,0.1-0.2,0.1-0.3l1.9,5.7c0,0,0,0,0,0.1s0.1,0.4,0.2,0.4h0.1c0.1,0,0.1,0,0.2-0.1s0-0.3,0-0.5
						c-0.1-0.2-0.1-0.4-0.2-0.6l0,0c0-0.1,0-0.3,0-0.4c0.1-0.1,0.3-0.2,0.4-0.1c0.2,0,0.4,0.2,0.5,0.5c0,0.1,0,0.1,0.1,0.2l0.2,0.5
						l0.3,0.9v0.1c0,0.1,0,0.1,0.1,0.2c0,0.1,0.1,0.1,0.1,0.2c0,0.1,0.1,0.3,0.1,0.4c0,0.1,0,0.5-0.1,0.9c0,0.3-0.1,0.6-0.1,0.8
						c0,0.1,0,0.2,0,0.2c-0.1,0.4-0.1,0.5-0.1,0.5c0,0.1,0,0.3,0.1,0.7l-1.1,0.4l-0.3,0.1l-1,0.3L79,44.9l-1.6,0.5l-0.2,0.1l0,0H77
						l-0.4,0.1C76.3,44.8,76.3,44.8,76.3,44.8z M82,45.1l-0.2,0.1h-0.1L79.3,46l-2,0.7l-0.7,0.2l-0.3-0.8h0.1h0.1h0.1l0.3-0.1
						l0.2-0.1l0,0l0.2-0.1l2.1-0.7l0.7-0.2l1.5-0.5l0,0h0.1l0,0h0.1h0.1H82l0.3,0.8L82,45.1z"/>
				</g>
				<g>
					<path class="st54" d="M67,202l0.1-0.4l0,0v-15.1c0-0.8,0.7-1.4,1.5-1.4h3.9v0.1l0,0h-0.4c-0.3,0-0.5,0.1-0.6,0.3h-3.3v11.6
						c0.1-0.1,0.2-0.1,0.3-0.1v-11.1h2.9l0,0c0,0.3,0.3,0.6,0.7,0.6h3H76c0.2-0.2,0.4-0.4,0.6-0.4c0.1,0,0.2,0,0.2,0l0,0l0,0
						l0.1-0.1l0,0l0.1-0.2l0.1-0.1l0.1-0.2c0-0.1,0.1-0.1,0.2-0.1l0,0c0.1,0,0.1,0,0.2,0.1l0,0l0.1,0.1v0.1l0.2,0.4l0.3,0.4
						c0,0.1,0.1,0.2,0,0.2c0.3,0,0.6-0.3,0.6-0.6l0,0h2.9v4.4l0.3,0.1v-4.8h-3.3c-0.1-0.2-0.3-0.3-0.6-0.3h-0.4l0,0v-0.1h3.9
						c0.8,0,1.5,0.6,1.5,1.4v4.1h0.2h0.2v-4.1c0-1-0.8-1.8-1.9-1.8h-3.9v-0.1c0-0.1-0.1-0.2-0.2-0.2l0,0c0-0.4-0.3-0.6-0.7-0.6h-1
						c0-0.4-0.4-0.8-0.8-0.8h-0.1c-0.4,0-0.7,0.4-0.7,0.8h-1c-0.4,0-0.7,0.3-0.7,0.6l0,0c-0.1,0-0.2,0.1-0.2,0.2v0.1h-3.9
						c-1,0-1.9,0.8-1.9,1.8v15.5L67,202L67,202z M75.1,183.4L75.1,183.4c0.3,0,0.5,0.2,0.5,0.4s-0.2,0.4-0.4,0.4h-0.1
						c-0.2,0-0.3-0.2-0.3-0.4C74.8,183.6,74.9,183.5,75.1,183.4z M72.9,185.1L72.9,185.1v-0.2v-0.1h4.6v0.1v0.2v0.1l0,0h-2.4h-2.2
						V185.1z"/>
					<path class="st54" d="M83.2,196v7c0,0.8-0.7,1.4-1.5,1.4H71.2v0.2v0.2h10.6c1,0,1.9-0.8,1.9-1.8v-6.9l-0.2-0.1L83.2,196z"/>
					<polygon class="st54" points="75.1,203.5 82.1,203.5 82.1,195.6 81.8,195.5 81.8,203.1 75.1,203.1 71.5,203.1 71.5,203.1 
						71.4,203.5 					"/>
					<path class="st54" d="M72.5,188.4h-2.3v2.1h2.3V188.4z M72.3,190.3h-1.8v-1.7h1.8V190.3z"/>
					<path class="st54" d="M74.1,189.3h-0.8v0.3h0.8c0,0,0,0-0.1-0.1C74,189.4,74,189.4,74.1,189.3L74.1,189.3z"/>
					<path class="st54" d="M72.3,194.2v1l0,0c0.1,0,0.1,0.1,0.2,0.1l0,0v-1.6v0.1L72.3,194.2L72.3,194.2z"/>
					<path class="st54" d="M70.4,194.1l-0.2-0.3v-0.1v1.9h1l0,0l0,0c0,0,0,0,0-0.1l-0.1-0.1l0,0h-0.8L70.4,194.1L70.4,194.1z"/>
					<polygon class="st54" points="71,193.7 71,193.8 71.8,193.8 71.8,193.7 71.9,193.6 71.9,193.6 70.9,193.6 70.9,193.6 					"/>
					<path class="st54" d="M79.7,194.8c-0.1-0.1-0.2-0.2-0.2-0.3H75h-1.8v0.3H75H79.7z"/>
					<polygon class="st54" points="73.3,199.9 75.1,199.9 80.1,199.9 80.1,199.6 75.1,199.6 73.3,199.6 					"/>
					<path class="st54" d="M72.7,193.1c0-0.1,0.1-0.2,0.1-0.2l0.2-0.5l-0.1-0.1l-0.7,1.2l0,0l-0.1,0.2l0,0l-0.6,1l-0.6-1l0,0
						l-0.1-0.2l0,0l-0.2-0.4l-0.3,0.1l0.2,0.3l0,0l0.1,0.2v0.1l0.9,1.6l0.9-1.5v-0.1l0.1-0.2l0,0l0.2-0.3
						C72.7,193.2,72.7,193.2,72.7,193.1z"/>
					<path class="st54" d="M74.4,189.9c0.1-0.1,0.1-0.2,0.2-0.3l0,0h-0.1h-0.1c-0.4,0.3-0.7,0.6-0.7,0.8c-0.1,0.1-0.1,0.3,0,0.5
						c0,0.1,0.1,0.2,0.2,0.2c0,0,0-0.1,0.1-0.1c0,0,0-0.1,0.1-0.1l-0.1-0.1c0-0.1,0-0.2,0-0.3C73.8,190.5,74.1,190.2,74.4,189.9z"/>
					<path class="st54" d="M80.2,193.7v-0.1l0.5-1.7l0.2-0.7l0.2-0.5l0.1-0.2l0.4,0.1v-0.1v-0.1l-0.5-0.1c-0.1,0-0.1,0-0.1,0.1
						l-0.1,0.2c-0.1-0.1-0.4-0.3-0.7-0.6c-0.1-0.1-0.2-0.2-0.2-0.2l-1.4-0.9c-0.1-0.1-0.2-0.1-0.3-0.2l-1.3-0.1l-0.1,0.1l-0.1,0.1
						l1.5,0.1c0.1,0,0.1,0,0.2,0.1l1.4,0.9c0,0,0.1,0.1,0.2,0.2c0.2,0.2,0.7,0.5,0.8,0.7l-0.9,2.8c-0.2,0-0.3-0.1-0.4-0.1
						c-0.2,0-0.3-0.1-0.3-0.1H79l-1.2-0.2h-0.1c0,0-1.3-0.7-2.5-1.1c-0.1,0-0.2-0.1-0.3-0.1l0,0c0.1-0.1,0.1-0.2,0.1-0.3
						s0-0.2,0-0.2v-0.1c0,0,0-0.1-0.1-0.1l0,0l0,0l-0.4-0.1c0,0,0,0,0.1,0s0.2,0,0.3,0.1l0,0H75l0,0l0,0c0.1,0,0.1,0,0.2,0
						c0.3,0.1,0.7,0.1,1,0.2l0.3,0.1c0.1,0,0.2,0,0.3,0l0.5-0.2l0.1-0.1c0-0.1,0.1-0.2,0.1-0.3v-0.3c0-0.2-0.1-0.4-0.3-0.5l-0.9-0.4
						h-0.1l0,0c0,0.1-0.1,0.1-0.2,0.1l0,0c-0.1,0.1-0.1,0.2-0.2,0.2L76,190c0.1-0.1,0.2-0.1,0.3,0l0.9,0.4c0.1,0,0.2,0.1,0.2,0.2
						v0.3l0,0c-0.1-0.1-0.3-0.3-0.4-0.3c-0.1-0.1-0.3-0.1-0.7-0.1c-0.2,0-0.4,0-0.6,0l0,0l-0.1,0.1l-0.1,0.1c0.1,0,0.1,0,0.2,0
						c1,0,1.1,0,1.2,0.1c0.2,0.1,0.3,0.2,0.4,0.3c0,0,0,0-0.1,0l-0.3,0.1c-0.1,0-0.1,0-0.2,0l-0.3-0.1c-0.3-0.1-0.7-0.2-1.1-0.2
						h-0.1h-0.1l0,0l0,0c0,0,0-0.1,0.1-0.1l0,0l0.1-0.1l0.1-0.1l0.1-0.1c0.1-0.1,0.2-0.2,0.2-0.3c0.1-0.1,0.1-0.2,0.2-0.3l0.1-0.1
						l0,0l0,0l0,0l0,0l0,0l0,0l0,0l0,0c0-0.1,0.1-0.1,0.1-0.2l0.1-0.1l0,0l0,0c0,0,0,0,0-0.1c0,0,0,0,0-0.1s0.1-0.1,0.1-0.2
						c0-0.1,0.1-0.1,0.1-0.2l0.1-0.1c0,0,0-0.1,0.1-0.1l0,0l0,0c0.1-0.1,0.2-0.3,0.3-0.4c0,0,0,0,0-0.1c0.1-0.2,0.2-0.3,0.3-0.5l0,0
						c0.1-0.2,0.2-0.4,0.3-0.5l0,0l0,0l0,0c0,0,0,0,0.1,0l0.3-0.5l0,0v-0.1l-0.3-0.5l-0.2-0.2l-0.1-0.1l0,0l0,0c0,0,0,0-0.1,0l0,0
						c0,0,0,0-0.1,0l0,0l0,0v0.1l-0.2,0.3v0.1L77,186l-0.1,0.1l0,0l0,0h-0.1c-0.1,0-0.1,0-0.2,0s-0.3,0.1-0.4,0.3
						c-0.2,0.2-0.3,0.4-0.5,0.7s-0.4,0.7-0.6,1c-0.3,0.5-0.6,0.9-0.8,1.1c0,0.1-0.1,0.1-0.1,0.1v0.1c0,0,0,0,0.1,0.1c0,0,0,0,0.1,0
						h0.1c0.1,0,0.3-0.1,0.4-0.2c0-0.1,0.1-0.1,0.1-0.2c0,0,0-0.1,0.1-0.1l0,0c0,0,0.1-0.1,0.1-0.2l0,0c0,0.1-0.1,0.1-0.1,0.2l0,0
						c0,0,0,0,0,0.1l0,0l0,0l0,0l0,0c0,0.1-0.1,0.1-0.1,0.2l0,0c-0.1,0.1-0.1,0.2-0.2,0.3l0,0c-0.1,0.2-0.2,0.3-0.3,0.5
						c-0.1,0.1-0.1,0.2-0.2,0.3s-0.1,0.2-0.2,0.3c0,0,0,0.1-0.1,0.1c0,0,0,0.1-0.1,0.1l-0.1,0.1c0,0,0,0.1-0.1,0.1
						c-0.1,0.1-0.2,0.3-0.3,0.5c0,0,0,0.1-0.1,0.1c-0.1,0.1-0.1,0.2-0.2,0.3c0,0.1-0.1,0.1-0.1,0.1l0,0l0,0l0,0c0,0,0,0.1-0.1,0.1
						c-0.1,0.2-0.1,0.3-0.2,0.4c0,0.1-0.1,0.1-0.1,0.2c0,0-0.1,0.1-0.1,0.2v0.1c0,0.1,0,0.1,0,0.2c0,0,0.1,0,0.1-0.1
						c0,0,0.1,0,0.1-0.1c0.1-0.1,0.1-0.1,0.2-0.2l0.1-0.1c0.1-0.1,0.2-0.2,0.4-0.4l0,0l0.1-0.1c0.1-0.1,0.2-0.2,0.2-0.3l0,0
						c0-0.1,0.1-0.1,0.1-0.2c0,0,0.1,0,0.2,0.1s0.3,0.1,0.3,0.1c0.1,0,0.3,0.1,0.4,0.1c1.2,0.4,2.3,1.1,2.3,1.1c0.1,0,0.1,0,0.2,0.1
						l1.5,0.2c0,0,0.2,0,0.3,0.1c0.1,0,0.3,0.1,0.4,0.1l-0.2,0.6c0,0.1,0,0.1,0.1,0.2l0.8,0.3v-0.1v-0.1l-0.7-0.2l0.2-0.5
						L80.2,193.7z M77.2,185.9L77.2,185.9l0.2-0.3l0.1,0.1l0.1,0.1l0.4,0.5l-0.1,0.1l-0.1,0.2c-0.1-0.1-0.2-0.1-0.2-0.2
						c-0.2-0.1-0.3-0.2-0.5-0.3l0,0L77.2,185.9z M76.1,189.3C76.1,189.3,76,189.3,76.1,189.3c-0.1,0.1-0.1,0.1-0.1,0.2h-0.1
						l-0.2-0.1l-0.3-0.2l-0.1-0.1l0,0c0-0.1,0.1-0.1,0.1-0.2l0.1,0.1l0.1,0.1L76.1,189.3C76.1,189.2,76.1,189.3,76.1,189.3z
						 M75.8,187.8L75.8,187.8c-0.1,0.2-0.2,0.4-0.3,0.5c0,0.1-0.1,0.1-0.1,0.2c0,0,0,0-0.1,0l0,0l0,0l0.1-0.1l0,0l0.1-0.1
						c0,0,0,0,0-0.1l0.1-0.1c0,0,0,0,0-0.1C75.7,188,75.7,188,75.8,187.8C75.7,187.9,75.8,187.9,75.8,187.8L75.8,187.8
						c0-0.1,0-0.1,0.1-0.1c0.1-0.1,0.1-0.2,0.2-0.3c0,0,0-0.1,0.1-0.1c0,0,0,0,0-0.1C76.1,187.5,75.9,187.7,75.8,187.8z M75.1,188.6
						c-0.1,0.1-0.1,0.2-0.2,0.2l0,0c-0.1,0.2-0.2,0.4-0.3,0.4c-0.1,0-0.1,0.1-0.1,0.1s0,0,0-0.1c0.1-0.2,0.3-0.5,0.6-0.8
						c0.3-0.4,0.5-0.8,0.8-1.2c0.2-0.4,0.4-0.6,0.6-0.8c0.1,0,0.1-0.1,0.2-0.1h0.1l0,0c0,0,0,0.1-0.1,0.1c-0.1,0.1-0.2,0.2-0.2,0.4
						h-0.1c-0.1,0-0.2,0.2-0.2,0.2l0,0C76.2,187,75.4,188,75.1,188.6z M73.2,193.1L73,193l0,0l0.3-0.6h0.1l0.3,0.2L73.2,193.1z
						 M74.7,191.5c0,0.1-0.1,0.1-0.1,0.2l0,0l0,0h-0.2l0,0l-0.2-0.1l0,0c0-0.1,0-0.1,0-0.2c0-0.1,0.1-0.2,0.1-0.3l0,0l0.4,0.2l0,0
						l0,0C74.7,191.4,74.7,191.5,74.7,191.5z"/>
					<polygon class="st54" points="83.6,190.8 83.4,190.8 83.2,190.7 82.1,190.5 81.8,190.4 81.8,190.4 81.8,190.4 81.8,190.5 
						81.7,190.6 80.8,194.6 80.8,194.7 80.7,194.8 80.7,194.9 81.8,195.3 82.1,195.4 83.2,195.8 83.4,195.9 83.6,195.9 84.3,196.2 
						84.6,191 					"/>
					<path class="st54" d="M71.3,203.3l-0.3-0.1v-0.1l0.1-0.5c0-0.1,0-0.1-0.1-0.1h-0.1l0,0v-0.1l0,0c0,0,0,0,0-0.1l0,0l0,0l0,0
						c0,0,0.1-0.1,0.2-0.2c0.6-0.6,0.8-0.8,0.8-0.9c0-0.1,0.1-0.2,0.1-0.4l0,0l0,0v-0.1l0.1-0.3v-0.1l0.1-0.4v-0.1
						c0-0.2,0-0.4-0.1-0.5l0,0l0,0l-0.1-0.1h-0.1h-0.1h-0.1l0,0l0,0l0,0l0,0l0.7-2.7v-0.1c0-0.1,0-0.1,0.1-0.2c0-0.1,0-0.1,0-0.2
						l0,0l0,0l0,0c0,0,0,0,0-0.1l-0.1-0.1l0,0c-0.2-0.1-0.4-0.1-0.5-0.1h-0.1c0,0,0,0-0.1,0l0,0l0,0l-0.1,0.1l0,0l0,0l0,0l-0.1,0.4
						c-0.1,0.3-0.2,0.7-0.3,1.1c-0.1-0.2-0.5-0.3-0.7-0.2c-0.1,0.1-0.3,0.2-0.3,0.3c0-0.1,0-0.2-0.1-0.3c-0.1-0.2-0.4-0.3-0.7-0.2
						c-0.2,0.1-0.2,0.3-0.3,0.4v0.1c0,0,0,0,0,0.1c-0.1-0.1-0.2-0.2-0.3-0.3c-0.1,0-0.1,0-0.2,0s-0.2,0.1-0.3,0.1l0,0l0,0l0,0
						c0,0.1-0.1,0.5-0.3,1.3l-0.3,1.1c-0.1,0.2,0,0.5,0.1,0.8c0,0.1,0,0.5,0,0.6c0,0,0,0,0,0.1l0,0v0.1l0,0v0.1c0,0,0,0,0,0.1v0.1
						l0,0h-0.1h-0.1c0,0,0,0-0.1,0.1l-0.1,0.6l0,0h-0.2H67l0,0l-0.8,3.8h4.7l0.3-1.2v-0.2v-0.2l0.2-1L71.3,203.3z M71.7,195.7
						L71.7,195.7L71.7,195.7L71.7,195.7v-0.1l0,0c0.1-0.1,0.3,0,0.4,0.1l0,0l0,0l0,0l0,0l0,0l-0.1,0.2c-0.1,0.2-0.2,0.3-0.3,0.2
						C71.7,196.1,71.7,195.9,71.7,195.7z M70.7,203.1l-2.2-0.6l-0.3-0.1l-0.8-0.2l0.1-0.5l0,0h0.1h0.1l0.5,0.1l0.3,0.1l2.1,0.5h0.1
						h0.1l0,0L70.7,203.1z M70.9,202c0,0.1-0.1,0.2-0.2,0.3l-2.2-0.6l-0.3-0.1l-0.4-0.1c0.1-0.4,0.1-0.5,0.1-0.5s0-0.6-0.1-0.7
						c-0.1-0.3-0.1-0.5-0.1-0.7l0.3-1.1c0.1-0.2,0.1-0.5,0.2-0.7c0.1-0.3,0.1-0.5,0.2-0.6l0.1-0.1h0.1c0.1,0,0.2,0.2,0.2,0.3
						s-0.1,0.3,0.1,0.4c0.2,0,0.2-0.2,0.3-0.6v-0.1c0-0.1,0.1-0.2,0.1-0.2c0.1-0.1,0.3,0,0.4,0.1s0.1,0.2,0,0.3c0,0.2-0.1,0.5,0,0.6
						s0.1,0.1,0.2,0.1c0,0,0.1,0,0.2-0.1c0-0.1,0-0.1,0.1-0.2v-0.1l0.1-0.4c0,0,0.1-0.2,0.2-0.2s0.4,0,0.4,0.2
						c0,0.1-0.1,0.4-0.1,0.5v0.2c0,0.1,0,0.1,0,0.2c0,0.1,0,0.1,0,0.2c0.1,0.1,0.3,0.1,0.3-0.1c0-0.1,0.2-1,0.6-2.2l0,0
						c0,0.1,0.1,0.2,0.2,0.2H72c0.1,0,0.2,0,0.2-0.1l-0.7,2.6l0,0l-0.2,0.6l0,0c0,0.1-0.1,0.2,0,0.3l0.1,0.1c0.1,0,0.2,0,0.2-0.3
						c0-0.1,0.1-0.2,0.1-0.4c0-0.1,0.1-0.1,0.1-0.1s0.1,0,0.2,0.1s0.1,0.2,0.1,0.4v0.1l-0.2,0.8c0,0.1,0,0.1,0,0.2l0,0l0,0
						c0,0.1-0.1,0.2-0.1,0.3s-0.5,0.6-0.7,0.8C70.9,202,70.9,202,70.9,202z"/>
				</g>
			</g>
		</g>
		<g>
			<g class="st33">
				<path class="st34" d="M79.4,139.8c0.2,0,0.4-0.1,0.4-0.3v-3.7c0-0.2-0.2-0.3-0.4-0.3h-3.7V132c0-1.1-0.9-1.9-1.9-1.9h-32
					c-1.1,0-1.9,0.9-1.9,1.9v1.2h-1.4c-0.3,0-0.5,0.3-0.5,0.6s0.2,0.6,0.5,0.6h1.4v2.6h-1.4c-0.3,0-0.5,0.3-0.5,0.6s0.2,0.6,0.5,0.6
					h1.4v2.6h-1.4c-0.3,0-0.5,0.3-0.5,0.6s0.2,0.6,0.5,0.6h1.4v2.6h-1.4c-0.3,0-0.5,0.3-0.5,0.6s0.2,0.6,0.5,0.6h1.4v2.5h-1.4
					c-0.3,0-0.5,0.3-0.5,0.6s0.2,0.6,0.5,0.6h1.4v2.6h-1.4c-0.3,0-0.5,0.3-0.5,0.6s0.2,0.6,0.5,0.6h1.4v2.6h-1.4
					c-0.3,0-0.5,0.3-0.5,0.6s0.2,0.6,0.5,0.6h1.4v2.6h-1.4c-0.3,0-0.5,0.3-0.5,0.6s0.2,0.6,0.5,0.6h1.4v2.6h-1.4
					c-0.3,0-0.5,0.3-0.5,0.6s0.2,0.6,0.5,0.6h1.4v2.6h-1.4c-0.3,0-0.5,0.3-0.5,0.6s0.2,0.6,0.5,0.6h1.4v2.5h-1.4
					c-0.3,0-0.5,0.3-0.5,0.6s0.2,0.6,0.5,0.6h1.4v1.5c0,1.1,0.9,1.9,1.9,1.9h32c1.1,0,1.9-0.9,1.9-1.9v-18.2h3.7
					c0.2,0,0.4-0.1,0.4-0.3v-3.7c0-0.2-0.2-0.3-0.4-0.3h-3.7v-0.9h3.7c0.2,0,0.4-0.1,0.4-0.3v-3.7c0-0.2-0.2-0.3-0.4-0.3h-3.7v-0.9
					h3.7c0.2,0,0.4-0.1,0.4-0.3v-3.7c0-0.2-0.2-0.3-0.4-0.3h-3.7v-0.9h3.7V139.8z M41.2,155.7h-0.7c0.2-0.2,0.5-0.4,0.8-0.4
					c0.6,0,1,0.5,1,1c0,0.6-0.5,1-1,1c-0.4,0-0.7-0.2-0.9-0.5h0.8c0.3,0,0.5-0.3,0.5-0.6C41.8,156,41.5,155.7,41.2,155.7z
					 M41.3,172.4c-0.3,0-0.6-0.2-0.8-0.4h0.7c0.3,0,0.5-0.3,0.5-0.6s-0.2-0.6-0.5-0.6h-0.8c0.2-0.3,0.5-0.5,0.8-0.5c0.6,0,1,0.5,1,1
					C42.3,172,41.9,172.4,41.3,172.4z M41.3,168.7c-0.4,0-0.7-0.2-0.8-0.5h0.8c0.3,0,0.5-0.3,0.5-0.6s-0.2-0.6-0.5-0.6h-0.7
					c0.2-0.2,0.5-0.4,0.8-0.4c0.6,0,1,0.5,1,1C42.3,168.3,41.9,168.7,41.3,168.7z M41.3,164.9c-0.3,0-0.6-0.2-0.8-0.4h0.7
					c0.3,0,0.5-0.3,0.5-0.6s-0.2-0.6-0.5-0.6h-0.8c0.2-0.3,0.5-0.4,0.8-0.4c0.6,0,1,0.5,1,1C42.3,164.4,41.9,164.9,41.3,164.9z
					 M41.3,161.1c-0.3,0-0.6-0.1-0.8-0.4h0.7c0.3,0,0.5-0.3,0.5-0.6s-0.2-0.6-0.5-0.6h-0.8c0.2-0.3,0.5-0.5,0.9-0.5c0.6,0,1,0.5,1,1
					C42.3,160.6,41.9,161.1,41.3,161.1z M41.3,153.6c-0.3,0-0.6-0.2-0.8-0.4h0.8c0.3,0,0.5-0.3,0.5-0.6s-0.2-0.6-0.5-0.6h-0.7
					c0.2-0.2,0.5-0.4,0.8-0.4c0.6,0,1,0.5,1,1S41.9,153.6,41.3,153.6z M41.3,149.9c-0.4,0-0.7-0.2-0.9-0.5h0.8
					c0.3,0,0.5-0.3,0.5-0.6s-0.2-0.6-0.5-0.6h-0.7c0.2-0.2,0.5-0.3,0.8-0.3c0.6,0,1,0.5,1,1C42.3,149.5,41.9,149.9,41.3,149.9z
					 M41.3,146.1c-0.4,0-0.7-0.2-0.9-0.5h0.8c0.3,0,0.5-0.3,0.5-0.6s-0.2-0.6-0.5-0.6h-0.7c0.2-0.2,0.5-0.4,0.8-0.4c0.6,0,1,0.5,1,1
					C42.3,145.7,41.9,146.1,41.3,146.1z M41.3,142.4c-0.4,0-0.7-0.2-0.9-0.5h0.8c0.3,0,0.5-0.3,0.5-0.6s-0.2-0.6-0.5-0.6h-0.7
					c0.2-0.2,0.5-0.4,0.8-0.4c0.6,0,1,0.5,1,1C42.3,141.9,41.9,142.4,41.3,142.4z M41.3,138.6c-0.4,0-0.7-0.2-0.8-0.5h0.8
					c0.3,0,0.5-0.3,0.5-0.6s-0.2-0.6-0.5-0.6h-0.7c0.2-0.2,0.5-0.4,0.8-0.4c0.6,0,1,0.5,1,1C42.3,138.1,41.9,138.6,41.3,138.6z
					 M41.3,134.8c-0.4,0-0.6-0.2-0.8-0.5h0.8c0.3,0,0.5-0.3,0.5-0.6s-0.2-0.6-0.5-0.6h-0.7c0.2-0.2,0.5-0.4,0.8-0.4c0.6,0,1,0.5,1,1
					C42.3,134.3,41.9,134.8,41.3,134.8z"/>
			</g>
			<g>
				<g>
					<path class="st55" d="M78.7,138.3c0,0.2-0.2,0.3-0.4,0.3h-5.9c-0.2,0-0.4-0.1-0.4-0.3v-3.7c0-0.2,0.2-0.3,0.4-0.3h5.9
						c0.2,0,0.4,0.1,0.4,0.3V138.3z"/>
					<path class="st3" d="M78.7,143.5c0,0.2-0.2,0.3-0.4,0.3h-5.9c-0.2,0-0.4-0.1-0.4-0.3v-3.7c0-0.2,0.2-0.3,0.4-0.3h5.9
						c0.2,0,0.4,0.1,0.4,0.3V143.5z"/>
					<path class="st3" d="M78.7,148.7c0,0.2-0.2,0.3-0.4,0.3h-5.9c-0.2,0-0.4-0.1-0.4-0.3V145c0-0.2,0.2-0.3,0.4-0.3h5.9
						c0.2,0,0.4,0.1,0.4,0.3V148.7z"/>
					<path class="st55" d="M78.7,153.9c0,0.2-0.2,0.3-0.4,0.3h-5.9c-0.2,0-0.4-0.1-0.4-0.3v-3.7c0-0.2,0.2-0.3,0.4-0.3h5.9
						c0.2,0,0.4,0.1,0.4,0.3V153.9z"/>
					<path class="st9" d="M72.7,128.9h-32c-1.1,0-1.9,0.9-1.9,1.9v41.6c0,1.1,0.9,1.9,1.9,1.9h32c1.1,0,1.9-0.9,1.9-1.9v-41.6
						C74.6,129.8,73.8,128.9,72.7,128.9z M40.2,171.3c-0.6,0-1-0.5-1-1c0-0.6,0.5-1,1-1c0.6,0,1,0.5,1,1
						C41.2,170.9,40.8,171.3,40.2,171.3z M39.1,155.3c0-0.6,0.5-1,1-1c0.6,0,1,0.5,1,1c0,0.6-0.5,1-1,1S39.1,155.9,39.1,155.3z
						 M40.2,167.6c-0.6,0-1-0.5-1-1c0-0.6,0.5-1,1-1c0.6,0,1,0.5,1,1C41.2,167.2,40.8,167.6,40.2,167.6z M40.2,163.8
						c-0.6,0-1-0.5-1-1c0-0.6,0.5-1,1-1c0.6,0,1,0.5,1,1S40.8,163.8,40.2,163.8z M40.2,160c-0.6,0-1-0.5-1-1s0.5-1,1-1
						c0.6,0,1,0.5,1,1S40.8,160,40.2,160z M40.2,152.5c-0.6,0-1-0.5-1-1c0-0.6,0.5-1,1-1c0.6,0,1,0.5,1,1
						C41.2,152.1,40.8,152.5,40.2,152.5z M40.2,148.8c-0.6,0-1-0.5-1-1c0-0.6,0.5-1,1-1c0.6,0,1,0.5,1,1S40.8,148.8,40.2,148.8z
						 M40.2,145c-0.6,0-1-0.5-1-1c0-0.6,0.5-1,1-1c0.6,0,1,0.5,1,1C41.2,144.6,40.8,145,40.2,145z M40.2,141.2c-0.6,0-1-0.5-1-1
						c0-0.6,0.5-1,1-1c0.6,0,1,0.5,1,1C41.2,140.8,40.8,141.2,40.2,141.2z M40.2,137.5c-0.6,0-1-0.5-1-1c0-0.6,0.5-1,1-1
						c0.6,0,1,0.5,1,1S40.8,137.5,40.2,137.5z M40.2,133.7c-0.6,0-1-0.5-1-1c0-0.6,0.5-1,1-1c0.6,0,1,0.5,1,1S40.8,133.7,40.2,133.7
						z"/>
					<path class="st3" d="M40.7,132.6c0,0.3-0.2,0.6-0.5,0.6h-2.7c-0.3,0-0.5-0.3-0.5-0.6l0,0c0-0.3,0.2-0.6,0.5-0.6h2.7
						C40.4,132,40.7,132.3,40.7,132.6L40.7,132.6z"/>
					<path class="st3" d="M40.7,136.4c0,0.3-0.2,0.6-0.5,0.6h-2.7c-0.3,0-0.5-0.3-0.5-0.6l0,0c0-0.3,0.2-0.6,0.5-0.6h2.7
						C40.4,135.8,40.7,136,40.7,136.4L40.7,136.4z"/>
					<path class="st3" d="M40.7,140.1c0,0.3-0.2,0.6-0.5,0.6h-2.7c-0.3,0-0.5-0.3-0.5-0.6l0,0c0-0.3,0.2-0.6,0.5-0.6h2.7
						C40.4,139.5,40.7,139.8,40.7,140.1L40.7,140.1z"/>
					<path class="st3" d="M40.7,143.9c0,0.3-0.2,0.6-0.5,0.6h-2.7c-0.3,0-0.5-0.3-0.5-0.6l0,0c0-0.3,0.2-0.6,0.5-0.6h2.7
						C40.4,143.3,40.7,143.6,40.7,143.9L40.7,143.9z"/>
					<path class="st3" d="M40.7,147.7c0,0.3-0.2,0.6-0.5,0.6h-2.7c-0.3,0-0.5-0.3-0.5-0.6l0,0c0-0.3,0.2-0.6,0.5-0.6h2.7
						C40.4,147.1,40.7,147.4,40.7,147.7L40.7,147.7z"/>
					<path class="st3" d="M40.7,151.5c0,0.3-0.2,0.6-0.5,0.6h-2.7c-0.3,0-0.5-0.3-0.5-0.6l0,0c0-0.3,0.2-0.6,0.5-0.6h2.7
						C40.4,150.9,40.7,151.1,40.7,151.5L40.7,151.5z"/>
					<path class="st3" d="M40.7,155.2c0,0.3-0.2,0.6-0.5,0.6h-2.7c-0.3,0-0.5-0.3-0.5-0.6l0,0c0-0.3,0.2-0.6,0.5-0.6h2.7
						C40.4,154.6,40.7,154.9,40.7,155.2L40.7,155.2z"/>
					<path class="st3" d="M40.7,159c0,0.3-0.2,0.6-0.5,0.6h-2.7c-0.3,0-0.5-0.3-0.5-0.6l0,0c0-0.3,0.2-0.6,0.5-0.6h2.7
						C40.4,158.4,40.7,158.7,40.7,159L40.7,159z"/>
					<path class="st3" d="M40.7,162.8c0,0.3-0.2,0.6-0.5,0.6h-2.7c-0.3,0-0.5-0.3-0.5-0.6l0,0c0-0.3,0.2-0.6,0.5-0.6h2.7
						C40.4,162.2,40.7,162.4,40.7,162.8L40.7,162.8z"/>
					<path class="st3" d="M40.7,166.5c0,0.3-0.2,0.6-0.5,0.6h-2.7c-0.3,0-0.5-0.3-0.5-0.6l0,0c0-0.3,0.2-0.6,0.5-0.6h2.7
						C40.4,165.9,40.7,166.2,40.7,166.5L40.7,166.5z"/>
					<path class="st3" d="M40.7,170.3c0,0.3-0.2,0.6-0.5,0.6h-2.7c-0.3,0-0.5-0.3-0.5-0.6l0,0c0-0.3,0.2-0.6,0.5-0.6h2.7
						C40.4,169.7,40.7,170,40.7,170.3L40.7,170.3z"/>
				</g>
				<g>
					<g>
						<path class="st56" d="M70,163.1c0,0-3.2,2.3-4.9,2.6c-1.8,0.3-3.2,0-7.7-4.4s-9.3-12.2-10.7-16.8c-1.4-4.5-1.5-5.8,0.7-7.9
							c1.9-1.8,3.3-2.5,3.3-2.5c0.4-0.2,0.8,0,1,0.4l2.4,7.3c0.3,0.7,0.2,1,0,1.1c-0.7,0.6-1.5,1.3-1.9,2.5c-0.4,1.1-0.4,2.3,1,4.7
							c1.5,2.6,4.7,6.9,6.1,7.4c1.4,0.5,3.6-0.6,3.6-0.6c0.4-0.2,1-0.1,1.3,0.2l5.9,5.1C70.3,162.3,70.3,162.8,70,163.1z"/>
					</g>
				</g>
			</g>
		</g>
	</g>
</g>
</svg>
