<?xml version="1.0" encoding="utf-8"?>
<!-- Generator: Adobe Illustrator 22.0.1, SVG Export Plug-In . SVG Version: 6.00 Build 0)  -->
<svg version="1.1" id="Layer_1" xmlns="http://www.w3.org/2000/svg" xmlns:xlink="http://www.w3.org/1999/xlink" x="0px" y="0px"
	 viewBox="0 0 104.8 102.9" style="enable-background:new 0 0 104.8 102.9;" xml:space="preserve">
<style type="text/css">
	.st0{fill:#FFFFFF;stroke:#96A6A8;stroke-width:5;stroke-miterlimit:10;}
	.st1{fill:#F27121;}
	.st2{fill:none;}
	.st3{fill:#849799;}
	.st4{fill:#506A6E;}
	.st5{fill:#D3DADB;}
	.st6{fill:#F37121;stroke:#F37121;stroke-width:0.2322;stroke-miterlimit:10;}
</style>
<circle class="st0" cx="53.9" cy="53.1" r="41.8"/>
<path class="st1" d="M3.5,36.4c-0.1,0-0.2,0-0.3-0.1c-0.6-0.2-0.9-0.8-0.7-1.4C6.9,22.4,15.8,11.8,27.6,5.4c0.5-0.3,1.2-0.1,1.5,0.4
	s0.1,1.2-0.4,1.5C17.4,13.5,8.8,23.6,4.5,35.7C4.3,36.1,3.9,36.4,3.5,36.4"/>
<path class="st1" d="M11.6,79c-0.6,0-1.2-0.3-1.5-0.9c-5-8.6-7.2-18.4-6.6-28.4c0.9-13.4,6.9-25.6,17-34.5C30.7,6.5,43.7,2.1,57.1,3
	c8.3,0.6,16.4,3.2,23.4,7.6c0.8,0.5,1.1,1.6,0.5,2.4c-0.5,0.8-1.6,1.1-2.4,0.5c-6.5-4.1-14-6.5-21.7-7c-12.5-0.9-24.6,3.2-34,11.4
	S7.9,37.5,7,50c-0.6,9.3,1.5,18.4,6.1,26.4c0.5,0.8,0.2,1.9-0.6,2.4C12.2,79,11.9,79,11.6,79"/>
<path class="st1" d="M52.8,102.6c-0.8,0-1.6,0-2.4-0.1c-0.7,0-1.3-0.7-1.2-1.4c0-0.7,0.7-1.3,1.4-1.2c10.6,0.7,21.3-2.3,30-8.4
	c0.6-0.4,1.4-0.3,1.8,0.3c0.4,0.6,0.3,1.4-0.3,1.8C73.5,99.6,63.2,102.8,52.8,102.6"/>
<ellipse class="st2" cx="52.4" cy="51.3" rx="52.7" ry="51.6"/>
<g>
	<path class="st3" d="M32.7,33.8v-9c-1.9,1.3-3.2,1.9-3.8,1.9c-0.3,0-0.6-0.1-0.8-0.3c-0.2-0.2-0.4-0.5-0.4-0.8
		c0-0.3,0.1-0.6,0.4-0.7c0.2-0.2,0.7-0.4,1.3-0.6c0.9-0.4,1.6-0.8,2.2-1.2c0.5-0.4,1-0.9,1.4-1.4c0.4-0.5,0.7-0.8,0.8-0.9
		c0.1-0.1,0.4-0.2,0.7-0.2c0.4,0,0.7,0.1,1,0.4c0.2,0.3,0.4,0.6,0.4,1.1v11.3c0,1.3-0.5,2-1.5,2c-0.5,0-0.8-0.1-1.1-0.4
		C32.9,34.7,32.7,34.3,32.7,33.8z"/>
	<path class="st3" d="M49.2,32.8h5.9c0.6,0,1,0.1,1.3,0.3c0.3,0.2,0.5,0.5,0.5,0.9c0,0.3-0.1,0.6-0.4,0.8c-0.2,0.2-0.6,0.3-1.1,0.3
		h-8.3c-0.6,0-1-0.1-1.3-0.4c-0.3-0.3-0.5-0.6-0.5-1c0-0.2,0.1-0.6,0.3-0.9s0.4-0.7,0.7-0.9c1-0.9,1.9-1.7,2.7-2.3
		c0.8-0.6,1.4-1.1,1.7-1.3c0.6-0.4,1.1-0.8,1.5-1.2c0.4-0.4,0.7-0.8,0.9-1.2c0.2-0.4,0.3-0.8,0.3-1.2c0-0.4-0.1-0.8-0.3-1.1
		c-0.2-0.3-0.5-0.6-0.9-0.8c-0.4-0.2-0.8-0.3-1.3-0.3c-1,0-1.8,0.4-2.3,1.1c-0.1,0.1-0.2,0.4-0.4,0.8c-0.2,0.4-0.4,0.8-0.6,1
		c-0.2,0.2-0.5,0.4-1,0.4c-0.4,0-0.7-0.1-0.9-0.3c-0.2-0.2-0.4-0.5-0.4-0.9c0-0.5,0.1-0.9,0.3-1.4c0.2-0.5,0.6-0.9,1-1.3
		c0.5-0.4,1-0.7,1.8-1c0.7-0.2,1.5-0.4,2.5-0.4c1.1,0,2.1,0.2,2.9,0.5c0.5,0.2,1,0.5,1.4,0.9c0.4,0.4,0.7,0.8,0.9,1.3s0.3,1,0.3,1.5
		c0,0.8-0.2,1.6-0.7,2.2c-0.5,0.7-0.9,1.2-1.4,1.6c-0.5,0.4-1.3,1-2.4,1.8c-1.1,0.8-1.9,1.4-2.3,1.9C49.6,32.3,49.4,32.5,49.2,32.8z
		"/>
	<path class="st3" d="M68.2,26.4c0.7,0,1.3-0.2,1.8-0.5c0.5-0.4,0.7-0.9,0.7-1.5c0-0.5-0.2-0.9-0.6-1.3c-0.4-0.4-0.9-0.5-1.6-0.5
		c-0.5,0-0.8,0.1-1.1,0.2c-0.3,0.1-0.5,0.3-0.7,0.4c-0.2,0.2-0.3,0.4-0.5,0.7c-0.2,0.3-0.3,0.6-0.4,0.8c-0.1,0.1-0.2,0.2-0.4,0.3
		C65.2,25,65,25,64.7,25c-0.3,0-0.6-0.1-0.8-0.3c-0.3-0.2-0.4-0.5-0.4-0.9c0-0.3,0.1-0.7,0.4-1.1s0.6-0.7,1-1.1
		c0.5-0.3,1-0.6,1.7-0.8c0.7-0.2,1.4-0.3,2.3-0.3c0.7,0,1.4,0.1,2,0.3c0.6,0.2,1.1,0.4,1.6,0.8c0.4,0.3,0.8,0.7,1,1.1
		c0.2,0.4,0.3,0.9,0.3,1.4c0,0.7-0.2,1.2-0.5,1.7c-0.3,0.5-0.8,0.9-1.4,1.4c0.6,0.3,1.1,0.6,1.5,0.9c0.4,0.4,0.7,0.8,0.9,1.2
		s0.3,0.9,0.3,1.4c0,0.6-0.1,1.2-0.4,1.7c-0.3,0.6-0.7,1.1-1.2,1.5c-0.5,0.4-1.2,0.8-1.9,1c-0.7,0.2-1.5,0.4-2.4,0.4
		c-0.9,0-1.7-0.1-2.4-0.4c-0.7-0.3-1.3-0.6-1.8-1.1c-0.5-0.4-0.8-0.9-1-1.3c-0.2-0.5-0.4-0.8-0.4-1.1c0-0.4,0.1-0.7,0.4-0.9
		c0.3-0.2,0.6-0.4,1.1-0.4c0.2,0,0.4,0.1,0.6,0.2s0.3,0.2,0.4,0.4c0.4,0.9,0.8,1.6,1.3,2c0.4,0.4,1.1,0.7,1.9,0.7
		c0.5,0,0.9-0.1,1.3-0.3c0.4-0.2,0.8-0.5,1.1-0.9c0.3-0.4,0.4-0.9,0.4-1.4c0-0.8-0.2-1.4-0.7-1.8c-0.5-0.4-1.1-0.7-2-0.7
		c-0.1,0-0.4,0-0.7,0c-0.3,0-0.5,0-0.6,0c-0.4,0-0.7-0.1-1-0.3c-0.2-0.2-0.3-0.4-0.3-0.8c0-0.3,0.1-0.6,0.4-0.8
		c0.3-0.2,0.7-0.3,1.2-0.3H68.2z"/>
	<path class="st4" d="M34,58.1v-1.7h-5.4c-0.7,0-1.2-0.1-1.5-0.4c-0.3-0.3-0.5-0.6-0.5-1.1c0-0.1,0-0.2,0.1-0.4
		c0.1-0.1,0.1-0.3,0.2-0.4c0.1-0.1,0.2-0.3,0.3-0.4c0.1-0.1,0.2-0.3,0.4-0.5l5.6-6.6c0.4-0.4,0.7-0.8,0.9-1c0.2-0.2,0.5-0.3,0.9-0.3
		c1.1,0,1.6,0.5,1.6,1.6v7.3h0.5c0.5,0,1,0.1,1.3,0.2c0.3,0.1,0.5,0.4,0.5,0.9c0,0.4-0.1,0.6-0.4,0.8c-0.3,0.2-0.7,0.2-1.2,0.2h-0.7
		v1.7c0,0.5-0.1,0.8-0.4,1.1s-0.6,0.4-1,0.4c-0.4,0-0.7-0.1-1-0.4C34.1,58.9,34,58.6,34,58.1z M29.4,54.2H34v-5.4L29.4,54.2z"/>
	<path class="st4" d="M58.8,40.9H52l-0.8,4.1c1.3-0.6,2.6-1,3.7-1c0.9,0,1.8,0.2,2.6,0.5c0.8,0.3,1.5,0.7,2.1,1.2s1.1,1.2,1.4,1.9
		s0.5,1.5,0.5,2.3c0,1.2-0.3,2.3-0.9,3.3c-0.6,1-1.5,1.8-2.7,2.4c-1.2,0.6-2.5,0.9-4,0.9c-1.7,0-3.1-0.3-4.1-0.8
		c-1.1-0.6-1.8-1.2-2.2-1.9s-0.7-1.3-0.7-1.9c0-0.3,0.2-0.6,0.5-0.9c0.3-0.3,0.7-0.4,1.2-0.4c0.8,0,1.4,0.4,1.8,1.2
		c0.4,0.7,0.9,1.3,1.5,1.7c0.6,0.4,1.4,0.6,2.2,0.6c0.7,0,1.4-0.2,1.9-0.5c0.5-0.3,1-0.8,1.3-1.4c0.3-0.6,0.4-1.2,0.4-2
		c0-0.8-0.2-1.5-0.5-2.1c-0.3-0.6-0.8-1-1.3-1.3c-0.5-0.3-1.1-0.4-1.8-0.4c-0.8,0-1.4,0.1-1.7,0.3c-0.4,0.2-0.9,0.5-1.5,0.9
		c-0.7,0.4-1.2,0.7-1.6,0.7c-0.5,0-0.9-0.1-1.2-0.4c-0.4-0.3-0.5-0.6-0.5-1c0,0,0.1-0.3,0.2-0.9l1.2-6c0.1-0.7,0.4-1.2,0.7-1.6
		s0.9-0.5,1.8-0.5h7.5c1.5,0,2.2,0.5,2.2,1.5c0,0.4-0.2,0.8-0.5,1.1C60,40.7,59.5,40.9,58.8,40.9z"/>
	<path class="st4" d="M76.5,51c0.5-0.6,1.1-1,1.8-1.3c0.6-0.3,1.3-0.4,2.1-0.4c0.8,0,1.4,0.1,2.1,0.4c0.6,0.2,1.2,0.6,1.7,1.1
		c0.5,0.5,0.8,1,1.1,1.6c0.3,0.6,0.4,1.3,0.4,1.9c0,1-0.3,1.9-0.8,2.7c-0.5,0.8-1.2,1.4-2.1,1.9c-0.9,0.4-1.9,0.7-3.1,0.7
		c-1.3,0-2.5-0.3-3.4-0.9c-1-0.6-1.7-1.4-2.2-2.5c-0.5-1.1-0.8-2.5-0.8-4.1c0-1.3,0.2-2.5,0.5-3.5c0.3-1,0.8-1.9,1.3-2.6
		c0.6-0.7,1.3-1.2,2.1-1.5c0.8-0.3,1.8-0.5,2.8-0.5c1,0,1.9,0.2,2.7,0.5c0.8,0.3,1.4,0.8,1.7,1.3c0.4,0.5,0.6,1,0.6,1.5
		c0,0.3-0.1,0.5-0.4,0.8c-0.2,0.2-0.6,0.4-0.9,0.4c-0.3,0-0.6-0.1-0.9-0.3c-0.3-0.2-0.5-0.4-0.6-0.8c-0.2-0.4-0.5-0.8-0.9-1
		c-0.4-0.3-0.9-0.4-1.4-0.4c-0.4,0-0.8,0.1-1.3,0.3c-0.4,0.2-0.8,0.5-1.1,0.9C77,47.8,76.6,49.1,76.5,51z M79.7,57.4
		c0.8,0,1.5-0.3,2-0.9c0.5-0.6,0.8-1.3,0.8-2.3c0-0.6-0.1-1.2-0.4-1.6c-0.2-0.5-0.6-0.8-1-1c-0.4-0.2-0.9-0.4-1.4-0.4
		c-0.5,0-1,0.1-1.4,0.3c-0.4,0.2-0.8,0.6-1.1,1c-0.3,0.4-0.4,0.9-0.4,1.5c0,0.9,0.3,1.7,0.8,2.3C78.2,57.1,78.9,57.4,79.7,57.4z"/>
	<path class="st3" d="M30.4,62.6h8.7c0.8,0,1.4,0.1,1.8,0.3c0.4,0.2,0.6,0.6,0.6,1.1c0,0.3-0.2,0.8-0.7,1.3
		c-0.4,0.5-0.9,1.1-1.5,1.8c-0.6,0.6-1.1,1.4-1.7,2.4c-0.6,1-1.1,2.1-1.6,3.5c-0.2,0.6-0.4,1.1-0.4,1.5c-0.1,0.4-0.2,0.9-0.3,1.6
		c-0.1,0.6-0.2,1.1-0.3,1.5c-0.2,0.8-0.4,1.3-0.8,1.6c-0.3,0.3-0.8,0.5-1.3,0.5c-0.5,0-1-0.2-1.3-0.5c-0.3-0.3-0.5-0.8-0.5-1.4
		c0-0.5,0.1-1.2,0.4-2c0.2-0.8,0.6-1.9,1.2-3c0.5-1.2,1.2-2.4,2-3.6c0.8-1.2,1.8-2.5,2.9-3.7h-7c-0.7,0-1.3-0.1-1.6-0.4
		c-0.4-0.2-0.5-0.6-0.5-1.1c0-0.5,0.2-0.9,0.6-1C29.2,62.7,29.7,62.6,30.4,62.6z"/>
	<path class="st3" d="M46.8,73.7c0-0.8,0.2-1.5,0.7-2.2c0.5-0.7,1.2-1.2,2.1-1.6c0.9-0.4,2-0.6,3.2-0.6c1,0,2,0.1,2.7,0.4
		c0.8,0.2,1.4,0.6,2,1c0.5,0.4,0.9,0.9,1.2,1.4c0.3,0.5,0.4,1.1,0.4,1.7c0,0.8-0.2,1.4-0.7,2c-0.4,0.6-1.1,1.1-2,1.5
		c0.7,0.3,1.4,0.6,1.8,1c0.5,0.4,0.9,0.9,1.1,1.4c0.2,0.5,0.4,1.1,0.4,1.8c0,1-0.3,1.8-0.8,2.6c-0.5,0.8-1.3,1.4-2.3,1.9
		c-1,0.4-2.2,0.7-3.6,0.7c-1.5,0-2.7-0.2-3.7-0.7c-1-0.4-1.8-1.1-2.3-1.8c-0.5-0.8-0.8-1.7-0.8-2.6c0-2.1,1.1-3.5,3.3-4.3
		C47.7,76.5,46.8,75.3,46.8,73.7z M56.2,81.4c0-0.6-0.1-1.1-0.4-1.6c-0.3-0.4-0.7-0.8-1.2-1c-0.5-0.2-1.1-0.4-1.7-0.4
		c-0.9,0-1.6,0.3-2.2,0.8s-0.9,1.3-0.9,2.2c0,0.6,0.1,1.1,0.4,1.6c0.3,0.5,0.7,0.8,1.2,1.1c0.5,0.2,1,0.4,1.6,0.4
		c0.6,0,1.2-0.1,1.7-0.4c0.5-0.3,0.9-0.6,1.2-1.1C56.1,82.5,56.2,82,56.2,81.4z M53,71.5c-0.8,0-1.5,0.2-2,0.7
		c-0.5,0.5-0.8,1-0.8,1.7c0,0.7,0.3,1.2,0.8,1.6c0.5,0.4,1.2,0.7,2,0.7c0.4,0,0.8-0.1,1.1-0.2s0.6-0.3,0.9-0.5
		c0.2-0.2,0.4-0.4,0.6-0.7c0.1-0.3,0.2-0.6,0.2-0.9c0-0.5-0.1-0.9-0.3-1.2c-0.2-0.4-0.6-0.6-1-0.9C54,71.6,53.5,71.5,53,71.5z"/>
</g>
<g>
	<g>
		<path class="st5" d="M78.2,92.9L63.3,67.7l1.6-0.9l-3.8-6.4c-6.8,3-14.8,0.5-18.7-6c-3.2-5.5-2.5-12.2,1.3-16.8
			c-5.6,4.5-7.2,12.6-3.4,19c3.9,6.5,11.9,9,18.7,6l3.8,6.4l-1.6,0.9l16,26.2l6.2-3.7l-1.1-1.9L78.2,92.9z"/>
	</g>
	<path class="st6" d="M67.3,39.9c-4.2-7-13.2-9.3-20.2-5.2c-7,4.2-9.3,13.2-5.2,20.2c3.9,6.5,11.9,9,18.7,6l3.8,6.4l-1.6,0.9
		l14.9,25.2l6.2-3.7L69,64.6l-1.6,0.9l-3.8-6.4C69.5,54.7,71.2,46.4,67.3,39.9z M47.8,56.6c-5.1-3.8-6.1-10.9-2.3-16
		c3.8-5.1,10.9-6.1,16-2.3c5.1,3.8,6.1,10.9,2.3,16C60,59.3,52.9,60.4,47.8,56.6z"/>
</g>
</svg>
