<?xml version="1.0" encoding="utf-8"?>
<!-- Generator: Adobe Illustrator 22.0.1, SVG Export Plug-In . SVG Version: 6.00 Build 0)  -->
<svg version="1.1" id="Layer_1" xmlns="http://www.w3.org/2000/svg" xmlns:xlink="http://www.w3.org/1999/xlink" x="0px" y="0px"
	 viewBox="0 0 104.8 102.9" style="enable-background:new 0 0 104.8 102.9;" xml:space="preserve">
<style type="text/css">
	.st0{fill:#FFFFFF;stroke:#96A6A8;stroke-width:5;stroke-miterlimit:10;}
	.st1{fill:#F27121;}
	.st2{fill-rule:evenodd;clip-rule:evenodd;fill:#96A6A8;}
	.st3{fill-rule:evenodd;clip-rule:evenodd;fill:#73888B;}
	.st4{fill-rule:evenodd;clip-rule:evenodd;fill:#506A6E;}
	.st5{fill:none;}
	.st6{fill:#D3DADB;}
	.st7{fill:#F37121;stroke:#F37121;stroke-width:0.2322;stroke-miterlimit:10;}
</style>
<circle class="st0" cx="53.9" cy="53.1" r="41.8"/>
<path class="st1" d="M3.5,36.4c-0.1,0-0.2,0-0.3-0.1c-0.6-0.2-0.9-0.8-0.7-1.4C6.9,22.4,15.8,11.8,27.6,5.4c0.5-0.3,1.2-0.1,1.5,0.4
	s0.1,1.2-0.4,1.5C17.4,13.5,8.8,23.6,4.5,35.7C4.3,36.1,3.9,36.4,3.5,36.4"/>
<path class="st1" d="M11.6,79c-0.6,0-1.2-0.3-1.5-0.9c-5-8.6-7.2-18.4-6.6-28.4c0.9-13.4,6.9-25.6,17-34.5C30.7,6.5,43.7,2.1,57.1,3
	c8.3,0.6,16.4,3.2,23.4,7.6c0.8,0.5,1.1,1.6,0.5,2.4c-0.5,0.8-1.6,1.1-2.4,0.5c-6.5-4.1-14-6.5-21.7-7c-12.5-0.9-24.6,3.2-34,11.4
	S7.9,37.5,7,50c-0.6,9.3,1.5,18.4,6.1,26.4c0.5,0.8,0.2,1.9-0.6,2.4C12.2,79,11.9,79,11.6,79"/>
<g>
	<rect x="23.4" y="53.5" class="st2" width="6" height="18.6"/>
	<rect x="32.4" y="48.6" class="st2" width="6" height="23.5"/>
	<rect x="41.4" y="43.5" class="st3" width="6" height="28.5"/>
	<rect x="50.4" y="38.6" class="st3" width="6" height="33.4"/>
	<rect x="19.5" y="74.8" class="st4" width="59.3" height="1.8"/>
	<rect x="59.4" y="32.4" class="st4" width="6" height="39.7"/>
	<rect x="68.4" y="26.1" class="st4" width="6" height="46"/>
	<rect x="59.4" y="37.1" class="st4" width="7" height="24"/>
	<rect x="67.4" y="37.1" class="st4" width="7" height="24"/>
</g>
<path class="st1" d="M52.8,102.6c-0.8,0-1.6,0-2.4-0.1c-0.7,0-1.3-0.7-1.2-1.4c0-0.7,0.7-1.3,1.4-1.2c10.6,0.7,21.3-2.3,30-8.4
	c0.6-0.4,1.4-0.3,1.8,0.3c0.4,0.6,0.3,1.4-0.3,1.8C73.5,99.6,63.2,102.8,52.8,102.6"/>
<ellipse class="st5" cx="52.4" cy="51.3" rx="52.7" ry="51.6"/>
<g>
	<g>
		<path class="st6" d="M89.3,94L74.3,68.8l1.6-0.9l-3.8-6.4c-6.8,3-14.8,0.5-18.7-6c-3.2-5.5-2.5-12.2,1.3-16.8
			c-5.6,4.5-7.2,12.6-3.4,19c3.9,6.5,11.9,9,18.7,6l3.8,6.4l-1.6,0.9l16,26.2l6.2-3.7l-1.1-1.9L89.3,94z"/>
	</g>
	<path class="st7" d="M78.3,41c-4.2-7-13.2-9.3-20.2-5.2C51.1,40,48.8,49,52.9,56c3.9,6.5,11.9,9,18.7,6l3.8,6.4l-1.6,0.9l14.9,25.2
		l6.2-3.7L80,65.7l-1.6,0.9l-3.8-6.4C80.5,55.8,82.2,47.5,78.3,41z M58.8,57.7c-5.1-3.8-6.1-10.9-2.3-16c3.8-5.1,10.9-6.1,16-2.3
		c5.1,3.8,6.1,10.9,2.3,16C71,60.4,63.9,61.5,58.8,57.7z"/>
</g>
</svg>
