<?xml version="1.0" encoding="utf-8"?>
<!-- Generator: Adobe Illustrator 22.0.1, SVG Export Plug-In . SVG Version: 6.00 Build 0)  -->
<svg version="1.1" id="Layer_1" xmlns="http://www.w3.org/2000/svg" xmlns:xlink="http://www.w3.org/1999/xlink" x="0px" y="0px"
	 viewBox="0 0 104.8 102.9" style="enable-background:new 0 0 104.8 102.9;" xml:space="preserve">
<style type="text/css">
	.st0{fill:#FFFFFF;stroke:#96A6A8;stroke-width:5;stroke-miterlimit:10;}
	.st1{fill:#F27121;}
	.st2{fill:none;}
	.st3{opacity:0.7;fill:#808080;}
	.st4{fill:#FFFFFF;stroke:#F37121;stroke-width:0.2184;stroke-miterlimit:10;}
	.st5{fill:#BCBDBF;}
	.st6{fill:#CCCCCC;}
	.st7{fill:#F37121;stroke:#F37121;stroke-width:0.234;stroke-miterlimit:10;}
</style>
<circle class="st0" cx="53.9" cy="53.1" r="41.8"/>
<path class="st1" d="M3.5,36.4c-0.1,0-0.2,0-0.3-0.1c-0.6-0.2-0.9-0.8-0.7-1.4C6.9,22.4,15.8,11.8,27.6,5.4c0.5-0.3,1.2-0.1,1.5,0.4
	s0.1,1.2-0.4,1.5C17.4,13.5,8.8,23.6,4.5,35.7C4.3,36.1,3.9,36.4,3.5,36.4"/>
<path class="st1" d="M11.6,79c-0.6,0-1.2-0.3-1.5-0.9c-5-8.6-7.2-18.4-6.6-28.4c0.9-13.4,6.9-25.6,17-34.5C30.7,6.5,43.7,2.1,57.1,3
	c8.3,0.6,16.4,3.2,23.4,7.6c0.8,0.5,1.1,1.6,0.5,2.4c-0.5,0.8-1.6,1.1-2.4,0.5c-6.5-4.1-14-6.5-21.7-7c-12.5-0.9-24.6,3.2-34,11.4
	S7.9,37.5,7,50c-0.6,9.3,1.5,18.4,6.1,26.4c0.5,0.8,0.2,1.9-0.6,2.4C12.2,79,11.9,79,11.6,79"/>
<path class="st1" d="M52.8,102.6c-0.8,0-1.6,0-2.4-0.1c-0.7,0-1.3-0.7-1.2-1.4c0-0.7,0.7-1.3,1.4-1.2c10.6,0.7,21.3-2.3,30-8.4
	c0.6-0.4,1.4-0.3,1.8,0.3c0.4,0.6,0.3,1.4-0.3,1.8C73.5,99.6,63.2,102.8,52.8,102.6"/>
<ellipse class="st2" cx="52.4" cy="51.3" rx="52.7" ry="51.6"/>
<g>
	<polygon class="st3" points="66.9,23 66,23 64.8,22.1 34.8,21.5 34.8,76.8 34.8,68.6 34.8,78.3 65.9,78.3 76.4,96 82,92.6 
		72.4,78.3 79.6,78.3 79.6,48.4 79.6,35.7 	"/>
	<g>
		<g>
			<g>
				<g>
					<polygon class="st4" points="65.4,21.5 33.2,21.5 33.2,76.8 78.1,76.8 78.1,34.2 					"/>
				</g>
				<g>
					<g>
						<rect x="36" y="42.8" class="st5" width="38.1" height="1.9"/>
						<rect x="36" y="37.4" class="st5" width="38.1" height="1.9"/>
						<rect x="36" y="31.9" class="st5" width="38.1" height="1.9"/>
						<rect x="37.7" y="26.5" class="st5" width="31.5" height="1.9"/>
						<rect x="38.3" y="48.2" class="st5" width="35.8" height="1.9"/>
						<rect x="36" y="53.6" class="st5" width="38.1" height="1.9"/>
						<rect x="36" y="59" class="st5" width="38.1" height="1.9"/>
						<rect x="36" y="64.5" class="st5" width="38.1" height="1.9"/>
						<rect x="36" y="69.9" class="st5" width="38.1" height="1.9"/>
					</g>
					<polygon class="st4" points="65.4,34.2 78.1,34.2 65.4,21.5 					"/>
					<polygon class="st6" points="78.1,34.2 65.4,34.2 78.1,46.9 					"/>
				</g>
			</g>
		</g>
		<path class="st7" d="M67.4,40c-4.2-7.1-13.3-9.4-20.4-5.2c-7.1,4.2-9.4,13.3-5.2,20.4c3.9,6.6,12,9,18.8,6l3.8,6.4l-1.6,1l15,25.4
			l6.2-3.7l-15-25.4l-1.6,1l-3.8-6.4C69.6,54.9,71.3,46.6,67.4,40z M47.7,56.8c-5.1-3.8-6.2-11-2.4-16.1c3.8-5.1,11-6.2,16.1-2.4
			c5.1,3.8,6.2,11,2.4,16.1C60,59.6,52.8,60.6,47.7,56.8z"/>
	</g>
</g>
</svg>
